<svg xmlns="http://www.w3.org/2000/svg" width="1025.08" height="691.567" viewBox="0 0 911.64 615.03" shape-rendering="geometricPrecision" text-rendering="geometricPrecision" image-rendering="optimizeQuality" fill-rule="evenodd" clip-rule="evenodd">
  <defs/>
  <g id="Capa_x0020_1">
    <g id="_2424253484480">
      <path d="M628.61 294.08c-6.08 91-87.67 167.36-187.28 159.25-90.63-7.38-166.25-87.09-158.22-187.24 2.69-33.49 16.54-67.87 36.56-92.82 7.77-9.68 17.47-19.85 26.78-27.21 53.43-42.28 128.65-51.92 190.07-18.85 12.01 6.47 28.53 17.84 38.15 27.09l15.37 16.84c1.49 2 2.87 3.63 4.6 5.85 3.16 4.06 5.81 8.33 8.83 12.99 18.91 29.15 27.53 68.27 25.14 104.11zM183.05 160.4v-23.35c0-25.7-6.07-21.27 46.49-21.27 7.23 0 40.04-1.56 43.53 1.9 3.32 3.29 1.86 15.83 1.86 20.97 0 37.39 2.32 33.57-17.21 33.56h-56.37c-14.32 0-18.32 2.91-18.3-11.82zm135.08-79.71c-17.4.96-37.11.14-54.77.14H207.8c-19.33 0-32.22-2.14-46.03 8.57-11.2 8.7-15.53 19.57-15.52 39.6.04 73.55 0 147.11 0 220.64v54.76c0 14.94-1.87 39.86 2.81 52.34 12.63 33.7 51.32 25.67 84.51 25.67h442.09c33.19 0 72.81 7.96 86.28-23.92 5.4-12.79 3.47-36.3 3.47-51.67V130.61c0-15.25-.72-29.62-14.6-40.51-14.47-11.34-25.31-9.28-46.16-9.27-37.07.02-74.14-.01-111.21-.01-.04-16.85 1.44-28.79-7.63-40.78-6.44-8.51-16.25-16.4-32.55-16.85-32.01-.89-65.29.03-97.44-.01-32.14-.05-65.44-.81-97.45.01-16.02.41-26.11 8.31-32.12 16.47-9.9 13.43-7.87 23.06-8.12 41.04z" fill="#ffa70a"/>
      <path class="fil1" d="M318.13 80.7c.25-17.97-1.78-27.61 8.12-41.04 6.01-8.16 16.1-16.06 32.12-16.47 32.01-.82 65.31-.06 97.45-.01 32.16.05 65.43-.87 97.44.01 16.3.45 26.11 8.34 32.55 16.85 9.07 11.98 7.59 23.93 7.63 40.78 37.07 0 74.14.04 111.21.01 20.84-.01 31.69-2.08 46.16 9.27 13.89 10.89 14.6 25.26 14.6 40.51v276.21c0 15.37 1.93 38.88-3.47 51.67-13.47 31.89-53.09 23.92-86.28 23.92H233.57c-33.19 0-71.88 8.03-84.51-25.67-4.68-12.48-2.81-37.4-2.81-52.34v-54.76c0-73.53.04-147.09 0-220.64-.01-20.03 4.31-30.9 15.52-39.6 13.81-10.72 26.7-8.57 46.03-8.57h55.56c17.66 0 37.36.82 54.77-.14zm329.75-43.95l66.37.02-.38 20.08-66.11-.13.12-19.96zm-352.3 21.3c-21.63-.01-108.7-1.63-123.21 1.65-17.09 3.87-30.23 15-37.48 25.37-10.77 15.42-11.28 29.16-11.28 51.17 0 83.85-.66 167.96.02 251.77-44.01 11.72-102.04 33.84-119.07 65.22-23.95 44.15 52.71 77.96 86.61 88.72 23.75 7.54 45.98 14.44 71.86 20.04 60.79 13.14 141.65 23.47 204.49 25.74 8.7.31 38.17.51 44.46 2.12l.28 25.17c7.17-5.86 11.74-11.48 17.14-17.2 2.92-3.09 5.27-5.65 8.23-8.71 1.67-1.72 2.66-2.8 4.43-4.43 2.05-1.89 3.16-2.69 4.28-5.08l-31.82-30.77c-1.92-1.68-1.06-1.12-3.36-2.24l.49 24.78c-78.26-.65-283.31-19.48-335.16-79.96-14.61-17.04-8.54-34.6 4.17-47.46 12.46-12.6 27.58-18.7 42.37-26.31 3.62 11.97-9.38 50.76 28.12 76.42 12.46 8.53 23.24 11.09 41.34 11.06h525.04c17.06 0 29.73-2.09 42-10.4 30.06-20.37 28.78-45.79 28.49-77.05 6.16 1.43 21.65 10.3 27.12 13.91 36.98 24.36 37.5 50.16 2.95 74.98-3.68 2.64-8.62 5.51-13.01 7.89-13.46 7.31-30.39 13.94-44.87 18.76-21.77 7.25-44.23 12.76-67.73 17.65-57.52 11.97-131.24 19.15-191.72 20.55-4.6.11-16.87-.21-20.57.6-5.78 1.27-9.28 8.43-5.49 14 3.43 5.04 10.84 3.69 17.35 3.53 7.01-.17 13.93-.35 20.94-.52 101.46-2.46 243.17-19.11 327.93-54.81 32.67-13.76 95.14-45.45 60.63-89.19-16.86-21.37-52.89-36.96-81.09-47.01-9.69-3.45-23.09-6.43-32.27-10.31-.99-9.87-.15-175.61-.15-190.28 0-19.04 1.71-78.58-2.33-93.16-3.55-12.81-11-23.19-18.06-29.43-10.72-9.48-16.05-11.33-32.12-16.12-.18-15.29 3.35-33.71-7.63-40.84-6.84-4.44-36.21-2.43-46.62-2.46-9.92-.02-39.36-1.72-46.29 2.01-12.84 6.9-7.72 24.44-8.75 40.43l-10.38.02c-3.74-29.21-24.14-51.81-51.83-56.4-14.16-2.35-137.32-1-162.19-1-31.74 0-67.17-5.6-89.22 19.92-9.95 11.51-13.71 18.76-17.07 37.62z"/>
      <path class="fil1" d="M592.36 290.86c-4.61 71.92-69.37 133.24-147.76 126.31-72.13-6.38-131.28-68.17-125.27-147.89 7.01-92.83 107.01-156.58 200.17-109.73 7.73 3.89 14.53 8.44 20.63 13.18 35.78 27.84 55.2 71.69 52.22 118.14zm36.26 3.22c2.39-35.84-6.22-74.96-25.14-104.11-3.02-4.66-5.67-8.93-8.83-12.99-1.73-2.22-3.12-3.85-4.6-5.85l-15.37-16.84c-9.62-9.25-26.14-20.62-38.15-27.09-61.42-33.07-136.64-23.43-190.07 18.85-9.31 7.37-19.01 17.53-26.78 27.21-20.02 24.95-33.87 59.33-36.56 92.82-8.03 100.15 67.59 179.86 158.22 187.24 99.6 8.11 181.19-68.25 187.28-159.25z"/>
      <path class="fil1" d="M444.21 182.35c-69.2 7.02-108.6 83.75-74.82 146.63 5.46 10.17 15.12 21.28 22.59 27.33 17.63 14.26 43.69 26.76 75.17 22.68 55.33-7.18 93.05-55.86 87.07-109.07-5.82-51.75-51.04-93.56-110.01-87.57z"/>
      <path class="fil2" d="M444.21 182.35c58.98-5.99 104.2 35.82 110.01 87.57 5.98 53.21-31.74 101.89-87.07 109.07-31.48 4.08-57.54-8.42-75.17-22.68-7.48-6.05-17.13-17.16-22.59-27.33-33.78-62.88 5.62-139.61 74.82-146.63zm148.14 108.51c2.98-46.45-16.44-90.3-52.22-118.14-6.1-4.75-12.9-9.29-20.63-13.18-93.17-46.85-193.17 16.91-200.17 109.73-6.02 79.73 53.13 141.52 125.27 147.89 78.38 6.93 143.15-54.39 147.76-126.31z"/>
      <path class="fil1" d="M183.05 160.41c-.02 14.73 3.98 11.82 18.3 11.82h56.37c19.53.01 17.21 3.83 17.21-33.56 0-5.14 1.46-17.69-1.86-20.97-3.49-3.46-36.3-1.9-43.53-1.9-52.56 0-46.49-4.43-46.49 21.27v23.35z"/>
      <path class="fil2" d="M647.76 56.71l66.11.14.38-20.08-66.37-.02z"/>
    </g>
  </g>
</svg>
