<svg
    xmlns="http://www.w3.org/2000/svg"
    viewBox="0 0 24 24"
    id="vector">
    <path
        id="path"
        d="M 12 2 C 13.755 2 15.48 2.462 17 3.34 C 18.52 4.217 19.783 5.48 20.66 7 C 21.538 8.52 22 10.245 22 12 C 22 13.755 21.538 15.48 20.66 17 C 19.783 18.52 18.52 19.783 17 20.66 C 15.48 21.538 13.755 22 12 22 C 9.349 22 6.804 20.946 4.929 19.071 C 3.054 17.196 2 14.651 2 12 C 2 9.349 3.054 6.804 4.929 4.929 C 6.804 3.054 9.349 2 12 2 M 11 16.5 L 18 9.5 L 16.59 8.09 L 11 13.67 L 7.91 10.59 L 6.5 12 L 11 16.5 Z"
        fill="#388e3c"/>
</svg>
