<svg xmlns="http://www.w3.org/2000/svg" width="589.931" height="589.931" viewBox="0 0 280.52 280.52" shape-rendering="geometricPrecision" text-rendering="geometricPrecision" image-rendering="optimizeQuality" fill-rule="evenodd" clip-rule="evenodd">
  <circle cx="140.26" cy="140.26" r="140.26" fill="#2c3437"/>
  <path d="M110.44 119.89c1.83-1.55-2.42-.48 3.11-1.24l27.65.77c.62 5.68 1.42 10.48-1.24 11.75l-29.34.05-.17-11.33zm-16.62 48.98c0 28.68-7.77 23.23 66.61 23.23 28.32 0 24.12-3 35.87 8.55 5.76 5.66 17.97 16.31 21.99 21.92 1.18-6.83.43-61.69.43-73.47 0-55.97 3.73-49.83-23.42-49.83l-.02 69.56-101.47.03zm4.58-49.22l-.32 11.63-10.83-.11c-2.63-2.14-1.6-8.42-1.24-11.75 4.08-1.26 9.45-1.22 12.39.23zm12.15-18.6l48.9-.01-.06 12.02-44.75.02-4.09-.11v-11.93zm-24.53-.01h12.22l.01 12.02H86.09l-.07-12.02zm24.83-18.21l48.48-.01.05 12.1-48.86-.06.33-12.02zm-12.46.39l-.23 11.71-11.13-.13c-1.8-1.76-.66 1.56-1.34-2.91L86 83l9.92-.67c4.33.63 1.07.21 2.47.9zm-36.75 96.16c4.34-2.85 11.81-11.03 16.03-15.22 8.73-8.68 5.03-8.58 21.36-8.55 20.12.04 40.24-.01 60.36 0 11.48.01 20.45 1.57 23.73-7.77 1.8-5.12.93-22.26.93-28.92 0-71.36 9.49-60.37-61.08-60.37-62.99 0-61.41-6.43-61.41 30.19l.08 90.65z" fill="#ffa70a"/>
</svg>
