<svg xmlns="http://www.w3.org/2000/svg" width="589.931" height="589.931" viewBox="0 0 296.96 296.96" shape-rendering="geometricPrecision" text-rendering="geometricPrecision" image-rendering="optimizeQuality" fill-rule="evenodd" clip-rule="evenodd">
  <circle cx="148.48" cy="148.48" r="148.48" fill="#ffbf15"/>
  <path d="M158.49 25.5h-20.03c-6.85 4.71-3.14 6.53-4.3 17.88-2.21 1.13-9.3 1.7-20.66 7.65-2.2 1.15-4.12 2.57-6.02 3.57-14.32-14.42-11.64-13.96-27.71 2.13-8.29 8.3 3.87 12.07 7.35 18.27-2.45 4.15-4.46 7.43-6.57 12.3-2.32 5.35-3.74 12.52-4.51 14.19-4.03.53-12.21-.77-15.14.99-3.81 2.3-2.78 7.95-2.78 13.31.01 16.13-.21 14.17 18.05 14.24 5.05 20.44 9.82 23.24 10.92 27.01-2.74 2.82-6.33 5.86-8.7 8.77-3.79 4.65.87 9.61 3.6 10.99 7.06-4.18 6.95-4.36 15.53-6.98 5.79-1.77 12.81-3.13 16.05-6.94-9.12-7.42-15.56-14.5-20.04-26.55-4.72-12.7-5.02-27.13-.35-40.07 18.72-51.82 91.42-51.95 110.42-.33 7.74 21.03 1.94 46.18-13.82 61.63-1.98 1.94-4.3 3.54-6.43 5.34 2.21 3.22 10.9 5.29 15.71 6.79 11.96 3.73 8.26 3.36 15.86 7.11 2.82-1.34 7.29-6.37 3.6-10.99-2.24-2.81-6.01-6.08-8.69-8.78 1-3.52 6.17-7.26 10.9-27.02 18.97.18 18.07.9 18.06-14.23 0-5.35 1.09-10.98-2.79-13.3-2.93-1.75-11.07-.49-15.13-.99-2.92-6.31.43-6.57-11.08-26.5 3.55-5.81 15.16-10.08 7.82-17.82L207.3 46.85c-6.61-6.45-10.15.4-17.86 7.74-20.42-11.63-21.98-8.87-26.67-11.23-1.18-11.1 2.55-13.26-4.3-17.88z" fill="#606062"/>
  <path d="M72.43 260.18h69.52l2.53-59.05c.52-12.77-2.15-7.11-5.9-13.88-4.87 1.9-5.57 7.51-8.76 11.52-.39-6.45-2.45-26.9-4.72-31.67-.77.28-6.2 4.98-10.48 7.41-10.54 5.97-26.94 3.85-34.3 20.72-3.95 9.05-4.28 20.46-5.18 31.03-.96 11.24-1.83 22.68-2.7 33.92zM117.4 87.73c-1.06 9.49-2.33 14.89.89 24.78.85 2.62 2.21 4.43 3.03 6.5-2.13 1.08-3.11 1.01-3.32 4.09-.22 3.29 1.28 10.26 2.49 13.34 1.09 2.76 1.72 2.14 4.1 3.66.89 5.48-.16 8.22 3.13 12.49 1.81 2.35 2.15 1.63 2.15 5.83 0 1.89-.23 5.88.16 7.51.72 2.99 5.78 5.91 7.91 7.62 1.55 1.25 2.81 2.11 4.41 3.38 1.29 1.03 3.23 2.83 4.75 3.59 3.09-1.73 16.51-12.08 17.13-14.12 1.69-5.55-1.96-8.58 2.21-13.4 3.34-3.87 2.84-7.04 3.38-12.66 2.54-1.34 3.26-.84 4.51-3.29 1.61-3.14 3.04-9.96 2.79-13.5-.26-3.58-1.42-3.14-3.62-4.55 4.83-5.61 6.1-17.44 2.58-25.3-1.6-3.56-2.88-3-7.13-3.87-1.73-6.14-3.19-9.02-8.17-11.53-10.61-5.35-21.54-2.37-30.33 4.34-8.6 6.57-7.12 6.49-13.04 5.09zm38.4 172.45h68.69c-.79-11.02-1.68-22.51-2.64-33.5-.93-10.68-1.27-22.28-5.23-31.44-7.14-16.55-22.65-14.67-33.97-20.59-5.88-3.08-9.36-6.93-10.81-7.54-2.34 5.19-4.32 24.87-4.72 31.67-1.65-2.08-4.42-9.84-8.75-11.52-3.41 6.74-6.74 1.1-5.95 13.79l3.38 59.14z" fill="#2c3437"/>
</svg>
