<svg clip-rule="evenodd" fill-rule="evenodd" height="175.414mm" image-rendering="optimizeQuality" shape-rendering="geometricPrecision" text-rendering="geometricPrecision" viewBox="0 0 4852.45 4403.81" width="193.284mm" xmlns="http://www.w3.org/2000/svg"><path d="m0 3003.54c0 371.23 255.79 727.65 710.63 990.15 454.83 262.5 1072.37 410.13 1715.6 410.13s1260.77-147.63 1715.6-410.13c454.84-262.5 710.63-618.92 710.63-990.15s-255.79-727.65-710.63-990.15c-454.83-262.5-1072.37-410.13-1715.6-410.13s-1260.77 147.63-1715.6 410.13c-454.84 262.5-710.63 618.92-710.63 990.15z" fill="#f5f5f5" fill-rule="nonzero"/><path d="m3423.71 3288.23c0 92.81 63.92 181.91 177.57 247.54 113.67 65.63 267.98 102.53 428.72 102.53s315.05-36.9 428.72-102.53c113.66-65.63 177.57-154.73 177.57-247.54s-63.92-181.91-177.57-247.54c-113.67-65.63-267.98-102.53-428.72-102.53s-315.05 36.9-428.72 102.53c-113.66 65.63-177.57 154.73-177.57 247.54z" fill="#e0e0e0" fill-rule="nonzero"/><path d="m1857.89 4044.25-1504.66-868.84c-24.25-14.76-24.25-36.9 0-51.67l2175.27-1255.82c24.25-14.76 64.32-14.76 89.63 0l1504.66 868.84c24.25 14.76 24.25 36.9 0 51.67l-2175.27 1255.82c-24.25 14.76-64.32 14.76-89.63 0z" fill="#e0e0e0" fill-rule="nonzero"/><path d="m446.02 3056.26c0 29.52 22.14 65.37 48.5 81.19l1365.48 788.71c27.41 15.82 70.65 15.82 97.01 0l2023.44-1168.3c27.41-15.82 48.5-51.67 48.5-81.19s-22.14-65.37-48.5-81.19l-1364.42-788.71c-27.41-15.82-70.65-15.82-97.01 0l-2024.49 1168.3c-26.36 15.82-48.5 51.67-48.5 81.19z" fill="#37474f" fill-rule="nonzero"/><path d="m1909.56 3831.26v105.44c-17.93 0-35.85-4.22-48.5-11.6l-1366.53-787.65c-27.41-15.82-48.5-51.67-48.5-81.19 0-27.41 18.98-61.16 44.29-78.03-22.14 15.82-20.03 39.01 5.27 52.72l1365.48 788.71c12.65 8.44 30.58 11.6 48.5 11.6z" fill="#263238" fill-rule="nonzero"/><path d="m400.68 2977.18c-25.31-14.76-45.34-51.67-45.34-82.24v-1629.08c0-30.58 22.14-68.54 48.5-84.35l2023.44-1169.35c27.41-15.82 69.59-15.82 94.9-2.11 25.31 14.76 45.34 51.67 45.34 82.24v1630.14c0 30.58-22.14 68.54-48.5 84.35l-2024.49 1168.3c-26.36 15.82-68.54 16.87-93.84 2.11z" fill="#455a64" fill-rule="nonzero"/><path d="m489.25 2978.23c-27.41 12.65-65.37 12.65-88.57-1.05-25.31-14.76-45.34-51.67-45.34-82.24v-1630.14c0-15.82 5.27-32.69 14.76-47.45l91.73 52.72c-8.44 15.82-14.76 32.69-14.76 47.45v1629.08c-1.05 29.52 17.93 42.18 42.18 31.63z" fill="#263238" fill-rule="nonzero"/><path d="m446.02 1317.52v1629.08c0 30.58 22.14 43.23 48.5 28.47l2024.49-1168.3c27.41-15.82 48.5-53.78 48.5-84.35v-1629.08c0-30.58-22.14-43.23-48.5-28.47l-2024.49 1168.3c-26.36 15.82-48.5 53.78-48.5 84.35z" fill="#37474f" fill-rule="nonzero"/><path d="m494.52 3032.01 1365.48 788.71c27.41 15.82 70.65 15.82 97.01 0l2023.44-1168.3c27.41-15.82 27.41-41.12 0-55.88l-1364.42-789.76c-27.41-15.82-70.65-15.82-97.01 0l-2024.49 1168.3c-26.36 15.82-26.36 41.12 0 56.94z" fill="#455a64" fill-rule="nonzero"/><path d="m520.88 1295.37 1957.01-1128.23c15.82-9.49 29.52-2.11 29.52 16.87v1503.61c0 18.98-12.65 41.12-29.52 50.61l-1957.01 1128.23c-15.82 9.49-29.52 2.11-29.52-16.87v-1502.55c1.05-18.98 13.71-42.18 29.52-51.67z" fill="#13991e" fill-rule="nonzero"/><path d="m1244.77 1200.54c.02-3.86.04-7.71.42-11.9 6.47-1.1 9.49 6.92 11.97 12.88 11.29 5.18 25.94 21.5 46.51 5.16.43-14.54-11.42-15.53-11.67-36.33 22.52-11.35 65.4 36.45 76.39 65.59 13.84 34.56 16.47 81.52 5.39 138.72-3.51 18.16-9.17 35.65-11.58 49.78-5.63 11.26-8.01 19.17-8.6 28.48 2.71-3.33 3.98-4.54 7.42-9.59 6.71-10.65 4.17-6.76 7.09-14.82 21.37-30.53 51.55-98.57 65.95-137.9 30.25-82.18 39.42-152.68 42.47-223.05 4.28-100.56 41.38-118.01-8.28-102.73-69.82 21.5-35.62 9.21-81.93-.34-13.28-2.95-25.14-2.86-39.16-1.03-44.23 6.03-129.95 47.39-182.66 128.44-7.43 11.47-11.79 21.93-22.61 28.85-7.21 4.71-84.91 21.79-84.83 41.19-.03 5.75-1.48 8.26 6.79 7.61 29.3-2.9 130.92-26.59 153.16-18.59 18.47 6.46-8.46 70.03 20.51 62.67 2.68 1.83-.2 3.16 3.94 2.21 6.66-1.74 2.16-.37 7.57-5.42-.68-8.25.04-7.45-4.26-9.9z" fill="#00dfe7"/><path d="m1154.77 1532.67c5.39 35.01 10.24 35.01-13.71 76.27 1.23 4.37 2.65 8.91 4.42 13.08-5.24 4.38-10.29 8.75-15.35 12.9-5.74 30.95-26.16 50.81-31.3 71.38 11.3 3.29 43.61-21.7 60.77-36.8 24.02-21.14 33.46-37.65 52.82-61.76 48.67-60.6 110.14-94.29 140.55-205.67 22.54-84.28 14.53-167.5-15.48-202.64-1.52 49.92 6.51 61.86-8.01 123.31-9.56 40.29-25.07 86.04-40.89 121.18-13.82 30.62-52.65 100.19-71.9 104.41-6.84 1.52-33.62-32.07-61.92-15.66z" fill="#000c29"/><path d="m1058.77 1310.29c22.9-15.32 46.52-31.19 70.51-47.6-2.83 24.67-5.65 48.99-8.48 73.4 12.26-7.64 54.99-34.83 64.39-44.35 2.78-16.02 10.97-69.98 7.78-77.68-21.1 14.41-41.84 28.49-62.21 42.52 3.21-28.46 6.6-56.79 10.16-85.7-13.52 9.07-60.04 40.53-71.07 52.4-3.93 29.2-7.5 58.18-11.07 87.02z" fill="#000c29"/><path d="m1199.42 1316.91c14.42-9.22 29.03-18.63 43.81-28.28.59-9.74 1.53-17.94 2.66-27.43 1.31-10.26 3.51-19.14.12-23.28-13.7 9.3-27.41 18.35-40.75 27.33-2.07 17.32-3.96 34.53-5.84 51.66z" fill="#000c29"/><path d="m1247.59 1312.93c7.94-5.12 15.69-10.52 23.8-15.87.76-8.5 1.71-17.36 2.65-26.22-7.38 2.44-15.13 7.16-23.62 15.76-.95 8.86-1.89 17.6-2.84 26.33z" fill="#000c29"/><path d="m648.5 2446.41c-.78-21.32-3.07-89.32 4.58-107.35 10.76-25.57 45.25-53.97 57.39-38.96 11.61 13.8 8.43 65.15-.54 92.77-10.8 32.57-42.57 54.1-61.44 53.53zm301.8-368.92c-16.43 12.4-24.92 19.92-24.69 43.3.05 23.88 6.71 21.02 24.93 10.36 2.93 22.77 1.38 74.5 1.59 101.88.44 51.01-5.84 80.34 24.29 61.76 30.85-19.11 23.41-38.72 22.62-91.7-.2-29.76-2.83-74.54-.33-103.95 27.98-20.27 56.43-27.19 55.56-65.06-1.05-37.6-28.92-5.23-56.51 10.79-3.03-69.51 36.81-57.46 46.54-62.01 10.27-4.62 43.14-64.21.31-57.45-21.95 3.3-55.53 30.22-71.86 57.57-18.14 30.25-21.34 55.98-22.46 94.52zm-184.77 215.11c-.12 52.21-5.11 106.83 30.29 110.46 11.14 1.2 26.64-5.73 42.18-17.53 19.68-15.21 22.25-23.63 36.73-40.01.72.39 1.25 1.02 1.97 1.28 4.48 2.76 4.11 3.77 9.52 2.26 32.24-9.27 29.88-38.12 29.62-54.53-.27-47.8-.55-95.2-1-142.64-.37-30.25 3.17-53.09-24.62-33-25.99 18.97-20.37 41.7-20.17 69.94.04 25.25 4.37 86.68-5.48 110.93-11.85 29.42-54.13 65.69-56.78 25.02-.14-39.16-.27-78.18-.23-117.31-.41-22.77-3.07-29.83-21.65-17.18-16.6 11.54-20.44 22.47-20.56 43.31-.11 19.77.14 39.33.2 58.99zm609.62-448.67c91.11-94.77 105.23 65.52 44.15 122.86-42.29 39.91-72.11 34.97-78.58-2.55-6.8-41.21-1.18-83.63 34.43-120.32zm-91.3 162.22c12.25 65.09 61.97 83.55 143.6 18.05 67.18-53.93 101.81-145.43 87.64-223.41-12.77-71.02-67.56-82.22-149.19-11.76-61.59 53.27-95.33 144.38-82.05 217.12zm-164.81 51.29c-3.45-59.9 94.39-132.57 95.27-62.2-32.66 21.38-64.42 42.04-95.27 62.2zm.44 51.88c37.73-27.01 81.92-52.16 122.16-78.34 26.35-17.14 28.94-31.18 26.2-59.34-13.29-139.2-138.96-38.21-175.68 36.68-46.36 93.84-35.66 274.31 117.35 147.25 75.51-62.77 39.51-91.08 32.67-90.95-22 10.92-34.59 44.67-76.06 65.39-23.62 11.87-46.63 9.62-46.64-20.69zm-508.68 386.35c24.04 9.51 55 2.99 88.26-27.9 81.16-75.12 80.84-268.82-1.23-221.86-24.89 14.09-29.8 24.45-48.6 42.71-1.74-40.4 6.24-82.61-12.51-73.67-31.73 15.6-24.9 47.59-25.11 82s-2.49 177.62-.81 198.71z" fill="#00dfe7"/><path d="m2393.12 1409.52c-1.88-25.61-3.93-51.13-5.26-76.95-158.63 113.09-194.61 155.26-203.86 5.82-9.76-155.95 21.88-151.18 185.09-253.6-.97-25.34-1.95-50.42-2.74-75.76-73.93 43.64-171.4 84.87-228.06 168.23-51.41 74.8-50.67 152.2-47.35 215.73 4.35 73.67 14.5 138.62 65.73 148.23 45.48 8.22 173.03-69.9 236.45-131.7z" fill="#000c29"/><path d="m1532.36 1657.06c26.34-18.06 53.59-36.74 80.47-55.41 4.21 94.62 8.42 190.14 12.62 286.42 22.55-13.68 45.64-27.91 69.1-42.2 5.32-21.02-8.48-254.75-10.45-292.94 28.51-19.73 57.38-39.64 86.79-60.04-1.33-23.66-2.47-47.54-3.62-71.3-82.82 58.55-161.67 114.15-237.81 167.88.79 22.5 1.93 44.93 2.9 67.59z" fill="#000c29"/><path d="m2039.15 1230.67c-81.91 57.52-160.93 113.13-236.88 166.44 2.95 61.26 5.8 122.92 8.66 184.81 2.85 61.89 6.25 124.11 9.56 186.44 78.66-48.19 160.2-98.36 245.18-150.63-1.69-25.28-3.19-50.76-4.7-76.24-56.11 35.28-110.95 70.09-164.53 103.7-1.67-27.05-3.17-54.08-4.48-80.93 42.76-28.27 85.88-56.65 130.44-86.1-1.15-24.43-2.66-48.63-4.17-72.71-44.38 29.57-87.5 58.4-129.89 86.67-1.32-25.56-2.82-50.76-3.6-76.25 30.85-22.06 141.25-93.48 162.38-113.73-.8-22.23-1.6-44.46-2.04-66.89-2.3-7.41.56-4.72-5.91-4.58z" fill="#000c29"/><g fill-rule="nonzero"><path d="m1595.31 2126.82c15-8.38 28.18-22.46 36.18-39.13-3.6-.63-7.19-1.4-10.78-2.16-5.64 12.07-15.16 22.5-26.05 28.64-17.8 10.03-32.58 2.59-33.2-15.63-.63-18.34 12.98-40.9 30.84-51.2 9.74-5.62 18.74-6.14 25.02-2.12 3.08-4.6 6.52-9.53 9.96-14.59-9.15-5.32-21.93-4.43-35.64 3.53-24.9 14.46-43.85 46.1-42.99 71.65.86 25.64 21.62 35.02 46.67 21.03zm101.21-56.56c26.69-14.87 47.46-48.12 46.24-75.06-1.22-27.03-24.34-34.96-50.28-19.83-26.01 15.17-46.11 47.99-45.16 74.27s23.03 35.2 49.19 20.62zm-.47-12.99c-18.4 10.28-34.56 3.48-35.19-15.35-.99-18.63 13.87-42.62 32.1-53.16 18.75-10.85 34.93-4.76 35.73 14.34.81 19.36-13.89 43.7-32.65 54.17zm162.78-178.42c-2.49 1.45-4.69 3.75-6.15 6.51-11.08 22.78-21.8 45.38-32.52 67.84-12.37-9.21-24.56-18.39-36.57-27.8-1.8-.72-3.8-.58-6.12.74-4.17 2.37-7.27 7.48-7.07 11.45 1.45 29.32 2.6 58.74 3.9 88.15 4.69-2.59 9.74-5.37 14.61-8.16-1.15-22.94-2.3-46.01-3.27-69.05 11.65 9.08 23.48 18.31 35.67 27.58 10.18-21.65 20.54-43.66 31.26-65.86 1.15 23.43 2.3 46.73 3.45 69.9 4.87-2.78 10.1-5.65 15.16-8.52-1.48-29.94-3.16-59.75-4.62-89.92-.18-3.83-3.72-5.2-7.72-2.87zm97.78-55.39c-12.87 7.46-25.41 14.99-38.07 22.41-4.48 2.63-8.02 8-7.79 12.22 1.59 29.65 3.15 59.27 4.81 88.91 4.69-2.67 10.29-5.73 15.34-8.59-.5-9.65-.99-19.3-1.66-29.11 10.46-5.82 20.78-11.61 31.39-17.59 20.06-11.29 35.8-35.62 34.8-54.8-.99-19-18.3-25.35-38.81-13.46zm2.99 54.07c-10.24 5.79-20.75 11.66-31.03 17.51-.84-12.86-1.32-26.04-1.98-39.16 10.1-5.97 20.41-11.9 30.85-17.87 11.57-6.62 21.87-3.04 22.46 7.94.57 10.81-8.53 24.93-20.3 31.58zm164.15-46.84c-17.53-23.69-34.88-47.03-51.88-70.44-1.79-2.28-4.85-2.19-7.91-.42-3.61 2.08-6.5 5.58-7.6 9.29-13.32 40.65-26.28 80.96-39.42 121.27 5.77-3.25 11.91-6.69 18.22-10.26 9.86-30.82 19.89-61.63 30.11-92.88 13.06 17.92 26.3 35.91 39.71 53.92 6.32-3.53 12.45-6.96 18.76-10.48zm110.69-168.68c1.33 25.76 3.2 51.19 4.89 76.59-24.06-12.17-48.12-24.27-72.01-36.31-1.61-.98-4.27-.61-7.02 1-5.18 3.03-8.96 8.78-8.7 13.23 1.91 31.77 4.04 63.43 6.06 95.19 5.59-3.13 11.55-6.45 17.5-9.77-1.69-24.92-3.38-49.96-4.89-74.88 23.88 11.66 47.95 23.72 72.19 35.55 1.62.94 4.34.45 7.74-1.42 5.43-2.99 8.82-8.34 8.52-12.82-2.23-32.24-4.23-64.35-6.61-96.63-5.77 3.42-11.91 6.94-17.68 10.28zm109.77 45.56c6.13-3.49 12.45-6.98 18.94-10.56-.85-11.17-1.7-22.48-2.56-33.65 15.26-33.4 30.69-67.26 46.31-101.33-7.76 4.37-15.15 8.64-22.37 12.84-11.62 25.75-23.25 51.41-34.69 76.69-14.17-10.6-28.17-21.44-41.8-32.32-7.04 4.22-14.25 8.31-21.11 12.31 17.94 14.33 35.87 28.65 55.07 42.28.67 11.27 1.35 22.55 2.2 33.73z" fill="#000c29"/><path d="m653.74 2989.83 1889.53-1090.27c13.71-7.38 34.8-7.38 48.5 0l88.57 51.67c13.71 7.38 13.71 20.03 0 28.47l-1889.53 1089.22c-13.71 7.38-34.8 7.38-48.5 0l-88.57-50.61c-13.71-8.44-13.71-21.09 0-28.47z" fill="#37474f"/><path d="m882.55 3121.63 1889.53-1090.27c13.71-7.38 34.8-7.38 48.5 0l545.14 315.27c13.71 7.38 13.71 20.03 0 28.47l-1887.42 1089.22c-13.71 7.38-34.8 7.38-48.5 0l-547.25-314.22c-13.71-8.44-13.71-21.09 0-28.47z" fill="#263238"/><path d="m2542.21 2494.25 59.05-34.8c2.11-1.05 2.11-4.22 0-5.27l-63.27-35.85c-2.11-1.05-6.33-1.05-9.49 0l-59.05 34.8c-2.11 1.05-2.11 4.22 0 5.27l63.27 35.85c3.16 1.05 7.38 1.05 9.49 0zm-101.22-127.59-59.05 34.8c-2.11 1.05-2.11 4.22 0 5.27l63.27 35.85c2.11 1.05 6.33 1.05 9.49 0l59.05-34.8c2.11-1.05 2.11-4.22 0-5.27l-63.27-35.85c-3.16-1.05-7.38-1.05-9.49 0zm-192.96 110.71-100.17 57.99c-2.11 1.05-2.11 4.22 0 5.27l63.27 35.85c2.11 1.05 6.33 1.05 9.49 0l100.17-57.99c2.11-1.05 2.11-4.22 0-5.27l-63.27-35.85c-3.16-1.05-6.33-1.05-9.49 0zm105.44-60.1-59.05 34.8c-2.11 1.05-2.11 4.22 0 5.27l63.27 35.85c2.11 1.05 6.33 1.05 9.49 0l59.05-34.8c2.11-1.05 2.11-4.22 0-5.27l-63.27-35.85c-3.16-2.11-7.38-2.11-9.49 0zm-233.03 133.91-59.05 34.8c-2.11 1.05-2.11 4.22 0 5.27l63.27 35.85c2.11 1.05 6.33 1.05 9.49 0l59.05-34.8c2.11-1.05 2.11-4.22 0-5.27l-63.27-35.85c-3.16-1.05-7.38-1.05-9.49 0zm-87.52 50.61-59.05 34.8c-2.11 1.05-2.11 4.22 0 5.27l63.27 35.85c2.11 1.05 6.33 1.05 9.49 0l59.05-34.8c2.11-1.05 2.11-4.22 0-5.27l-63.27-35.85c-2.11-1.05-6.33-1.05-9.49 0zm246.73 147.62 59.05-34.8c2.11-1.05 2.11-4.22 0-5.27l-63.27-35.85c-2.11-1.05-6.33-1.05-9.49 0l-59.05 34.8c-2.11 1.05-2.11 4.22 0 5.27l63.27 35.85c3.16 2.11 7.38 1.05 9.49 0zm-86.46 50.61 59.05-34.8c2.11-1.05 2.11-4.22 0-5.27l-63.27-35.85c-2.11-1.05-6.33-1.05-9.49 0l-59.05 34.8c-2.11 1.05-2.11 4.22 0 5.27l63.27 35.85c2.11 1.05 6.33 1.05 9.49 0zm-87.52 49.56 59.05-34.8c2.11-1.05 2.11-4.22 0-5.27l-63.27-35.85c-2.11-1.05-6.33-1.05-9.49 0l-59.05 34.8c-2.11 1.05-2.11 4.22 0 5.27l63.27 35.85c3.16 2.11 7.38 2.11 9.49 0zm-86.46 50.61 59.05-34.8c2.11-1.05 2.11-4.22 0-5.27l-63.27-35.85c-2.11-1.05-6.33-1.05-9.49 0l-59.05 34.8c-2.11 1.05-2.11 4.22 0 5.27l63.27 35.85c2.11 1.05 6.33 1.05 9.49 0zm436.53-355.34 59.05-34.8c2.11-1.05 2.11-4.22 0-5.27l-63.27-35.85c-2.11-1.05-6.33-1.05-9.49 0l-57.99 33.74c-2.11 1.05-2.11 4.22 0 5.27l63.27 35.85c2.11 2.11 5.27 2.11 8.44 1.05zm-88.57 153.95 132.86-76.97c2.11-1.05 2.11-4.22 0-5.27l-152.89-87.52c-2.11-1.05-6.33-1.05-9.49 0l-68.54 40.07c-2.11 1.05-2.11 4.22 0 5.27l81.19 46.39c2.11 1.05 2.11 4.22 0 5.27l-54.83 31.63c-2.11 1.05-2.11 4.22 0 5.27l63.27 35.85c1.05 2.11 5.27 2.11 8.44 0zm-420.71-46.39-59.05 34.8c-2.11 1.05-2.11 4.22 0 5.27l63.27 35.85c2.11 1.05 6.33 1.05 9.49 0l59.05-34.8c2.11-1.05 2.11-4.22 0-5.27l-63.27-35.85c-3.16-2.11-7.38-2.11-9.49 0zm-87.52 49.56-59.05 34.8c-2.11 1.05-2.11 4.22 0 5.27l63.27 35.85c2.11 1.05 6.33 1.05 9.49 0l59.05-34.8c2.11-1.05 2.11-4.22 0-5.27l-63.27-35.85c-2.11-1.05-6.33-1.05-9.49 0zm-457.62 549.35c2.11 1.05 6.33 1.05 9.49 0l59.05-34.8c2.11-1.05 2.11-4.22 0-5.27l-63.27-35.85c-2.11-1.05-6.33-1.05-9.49 0l-59.05 34.8c-2.11 1.05-2.11 4.22 0 5.27zm-237.25-147.62-59.05 34.8c-2.11 1.05-2.11 4.22 0 5.27l63.27 35.85c2.11 1.05 6.33 1.05 9.49 0l59.05-34.8c2.11-1.05 2.11-4.22 0-5.27l-63.27-35.85c-3.16-1.05-7.38-1.05-9.49 0zm124.42 109.66c2.11 1.05 6.33 1.05 9.49 0l59.05-34.8c2.11-1.05 2.11-4.22 0-5.27l-63.27-35.85c-2.11-1.05-6.33-1.05-9.49 0l-59.05 34.8c-2.11 1.05-2.11 4.22 0 5.27zm257.28 63.27 59.05-34.8c2.11-1.05 2.11-4.22 0-5.27l-63.27-35.85c-2.11-1.05-6.33-1.05-9.49 0l-59.05 34.8c-2.11 1.05-2.11 4.22 0 5.27l63.27 35.85c3.16 2.11 7.38 2.11 9.49 0zm-95.95 50.61c2.11 1.05 6.33 1.05 9.49 0l59.05-34.8c2.11-1.05 2.11-4.22 0-5.27l-63.27-35.85c-2.11-1.05-6.33-1.05-9.49 0l-59.05 34.8c-2.11 1.05-2.11 4.22 0 5.27zm-199.29-273.1-59.05 34.8c-2.11 1.05-2.11 4.22 0 5.27l63.27 35.85c2.11 1.05 6.33 1.05 9.49 0l59.05-34.8c2.11-1.05 2.11-4.22 0-5.27l-63.27-35.85c-3.16-2.11-6.33-2.11-9.49 0zm434.42-250.95-59.05 34.8c-2.11 1.05-2.11 4.22 0 5.27l63.27 35.85c2.11 1.05 6.33 1.05 9.49 0l59.05-34.8c2.11-1.05 2.11-4.22 0-5.27l-63.27-35.85c-2.11-2.11-6.33-2.11-9.49 0zm-346.91 200.34-59.05 34.8c-2.11 1.05-2.11 4.22 0 5.27l63.27 35.85c2.11 1.05 6.33 1.05 9.49 0l59.05-34.8c2.11-1.05 2.11-4.22 0-5.27l-63.27-35.85c-3.16-1.05-7.38-1.05-9.49 0zm434.42-250.95-59.05 34.8c-2.11 1.05-2.11 4.22 0 5.27l63.27 35.85c2.11 1.05 6.33 1.05 9.49 0l59.05-34.8c2.11-1.05 2.11-4.22 0-5.27l-63.27-35.85c-3.16-2.11-7.38-1.05-9.49 0zm-173.98 100.17-59.05 34.8c-2.11 1.05-2.11 4.22 0 5.27l63.27 35.85c2.11 1.05 6.33 1.05 9.49 0l59.05-34.8c2.11-1.05 2.11-4.22 0-5.27l-63.27-35.85c-3.16-1.05-7.38-1.05-9.49 0zm-86.46 50.61-59.05 34.8c-2.11 1.05-2.11 4.22 0 5.27l63.27 35.85c2.11 1.05 6.33 1.05 9.49 0l59.05-34.8c2.11-1.05 2.11-4.22 0-5.27l-63.27-35.85c-3.16-2.11-7.38-2.11-9.49 0zm-87.52 49.56-59.05 34.8c-2.11 1.05-2.11 4.22 0 5.27l63.27 35.85c2.11 1.05 6.33 1.05 9.49 0l59.05-34.8c2.11-1.05 2.11-4.22 0-5.27l-63.27-35.85c-3.16-1.05-7.38-1.05-9.49 0zm420.71 47.45 59.05-34.8c2.11-1.05 2.11-4.22 0-5.27l-63.27-35.85c-2.11-1.05-6.33-1.05-9.49 0l-59.05 34.8c-2.11 1.05-2.11 4.22 0 5.27l63.27 35.85c3.16 2.11 6.33 2.11 9.49 0zm787.65-744.42-59.05 34.8c-2.11 1.05-2.11 4.22 0 5.27l63.27 35.85c2.11 1.05 6.33 1.05 9.49 0l59.05-34.8c2.11-1.05 2.11-4.22 0-5.27l-63.27-35.85c-3.16-2.11-7.38-2.11-9.49 0zm-105.44 60.1-59.05 34.8c-2.11 1.05-2.11 4.22 0 5.27l63.27 35.85c2.11 1.05 6.33 1.05 9.49 0l59.05-34.8c2.11-1.05 2.11-4.22 0-5.27l-63.27-35.85c-3.16-1.05-7.38-1.05-9.49 0zm191.9-110.71-59.05 34.8c-2.11 1.05-2.11 4.22 0 5.27l63.27 35.85c2.11 1.05 6.33 1.05 9.49 0l59.05-34.8c2.11-1.05 2.11-4.22 0-5.27l-63.27-35.85c-3.16-1.05-6.33-1.05-9.49 0zm-465 455.51 59.05-34.8c2.11-1.05 2.11-4.22 0-5.27l-63.27-35.85c-2.11-1.05-6.33-1.05-9.49 0l-59.05 34.8c-2.11 1.05-2.11 4.22 0 5.27l63.27 35.85c3.16 1.05 6.33 1.05 9.49 0zm560.95-505.07c-2.11-1.05-6.33-1.05-9.49 0l-59.05 34.8c-2.11 1.05-2.11 4.22 0 5.27l63.27 35.85c2.11 1.05 6.33 1.05 9.49 0l59.05-34.8c2.11-1.05 2.11-4.22 0-5.27zm-883.61 795.03 59.05-34.8c2.11-1.05 2.11-4.22 0-5.27l-63.27-35.85c-2.11-1.05-6.33-1.05-9.49 0l-59.05 34.8c-2.11 1.05-2.11 4.22 0 5.27l63.27 35.85c3.16 1.05 7.38 1.05 9.49 0zm1066.02-615.78 59.05-34.8c2.11-1.05 2.11-4.22 0-5.27l-63.27-35.85c-2.11-1.05-6.33-1.05-9.49 0l-59.05 34.8c-2.11 1.05-2.11 4.22 0 5.27l63.27 35.85c3.16 1.05 7.38 1.05 9.49 0zm-176.09-2.11 59.05-34.8c2.11-1.05 2.11-4.22 0-5.27l-63.27-35.85c-2.11-1.05-6.33-1.05-9.49 0l-59.05 34.8c-2.11 1.05-2.11 4.22 0 5.27l63.27 35.85c3.16 2.11 7.38 2.11 9.49 0zm83.3-125.48c-2.11-1.05-6.33-1.05-9.49 0l-59.05 34.8c-2.11 1.05-2.11 4.22 0 5.27l63.27 35.85c2.11 1.05 6.33 1.05 9.49 0l59.05-34.8c2.11-1.05 2.11-4.22 0-5.27zm18.98-10.54 152.89 87.52c2.11 1.05 6.33 1.05 9.49 0l59.05-34.8c2.11-1.05 2.11-4.22 0-5.27l-152.89-87.52c-2.11-1.05-6.33-1.05-9.49 0l-59.05 34.8c-3.16 1.05-3.16 3.16 0 5.27zm-201.39 110.71-59.05 34.8c-2.11 1.05-2.11 4.22 0 5.27l63.27 35.85c2.11 1.05 6.33 1.05 9.49 0l59.05-34.8c2.11-1.05 2.11-4.22 0-5.27l-63.27-35.85c-3.16-1.05-7.38-1.05-9.49 0zm-654.8 377.48-59.05 34.8c-2.11 1.05-2.11 4.22 0 5.27l63.27 35.85c2.11 1.05 6.33 1.05 9.49 0l59.05-34.8c2.11-1.05 2.11-4.22 0-5.27l-63.27-35.85c-2.11-1.05-6.33-1.05-9.49 0zm834.05-300.51c2.11 1.05 6.33 1.05 9.49 0l59.05-34.8c2.11-1.05 2.11-4.22 0-5.27l-63.27-35.85c-2.11-1.05-6.33-1.05-9.49 0l-59.05 34.8c-2.11 1.05-2.11 4.22 0 5.27zm-746.53 250.95-59.05 34.8c-2.11 1.05-2.11 4.22 0 5.27l63.27 35.85c2.11 1.05 6.33 1.05 9.49 0l59.05-34.8c2.11-1.05 2.11-4.22 0-5.27l-63.27-35.85c-3.16-2.11-7.38-2.11-9.49 0zm-667.45 566.23c2.11 1.05 6.33 1.05 9.49 0l59.05-34.8c2.11-1.05 2.11-4.22 0-5.27l-63.27-35.85c-2.11-1.05-6.33-1.05-9.49 0l-59.05 34.8c-2.11 1.05-2.11 4.22 0 5.27zm-114.93-114.93-59.05 34.8c-2.11 1.05-2.11 4.22 0 5.27l63.27 35.85c2.11 1.05 6.33 1.05 9.49 0l59.05-34.8c2.11-1.05 2.11-4.22 0-5.27l-63.27-35.85c-3.16-1.05-7.38-1.05-9.49 0zm210.88 64.32 59.05-34.8c2.11-1.05 2.11-4.22 0-5.27l-63.27-35.85c-2.11-1.05-6.33-1.05-9.49 0l-59.05 34.8c-2.11 1.05-2.11 4.22 0 5.27l63.27 35.85c3.16 1.05 7.38 1.05 9.49 0zm87.52-50.61 59.05-34.8c2.11-1.05 2.11-4.22 0-5.27l-63.27-35.85c-2.11-1.05-6.33-1.05-9.49 0l-59.05 34.8c-2.11 1.05-2.11 4.22 0 5.27l63.27 35.85c3.16 2.11 7.38 2.11 9.49 0zm86.46-49.56 59.05-34.8c2.11-1.05 2.11-4.22 0-5.27l-63.27-35.85c-2.11-1.05-6.33-1.05-9.49 0l-59.05 34.8c-2.11 1.05-2.11 4.22 0 5.27l63.27 35.85c3.16 1.05 7.38 1.05 9.49 0zm-298.4-13.71-59.05 34.8c-2.11 1.05-2.11 4.22 0 5.27l63.27 35.85c2.11 1.05 6.33 1.05 9.49 0l59.05-34.8c2.11-1.05 2.11-4.22 0-5.27l-63.27-35.85c-3.16-2.11-7.38-2.11-9.49 0zm87.52-50.61-59.05 34.8c-2.11 1.05-2.11 4.22 0 5.27l63.27 35.85c2.11 1.05 6.33 1.05 9.49 0l59.05-34.8c2.11-1.05 2.11-4.22 0-5.27l-63.27-35.85c-3.16-2.11-7.38-1.05-9.49 0zm346.91-201.39-59.05 34.8c-2.11 1.05-2.11 4.22 0 5.27l63.27 35.85c2.11 1.05 6.33 1.05 9.49 0l59.05-34.8c2.11-1.05 2.11-4.22 0-5.27l-63.27-35.85c-2.11-1.05-6.33-1.05-9.49 0zm-86.46 50.61-59.05 34.8c-2.11 1.05-2.11 4.22 0 5.27l63.27 35.85c2.11 1.05 6.33 1.05 9.49 0l59.05-34.8c2.11-1.05 2.11-4.22 0-5.27l-63.27-35.85c-3.16-1.05-7.38-1.05-9.49 0zm173.98-100.17-59.05 34.8c-2.11 1.05-2.11 4.22 0 5.27l63.27 35.85c2.11 1.05 6.33 1.05 9.49 0l59.05-34.8c2.11-1.05 2.11-4.22 0-5.27l-63.27-35.85c-3.16-2.11-7.38-2.11-9.49 0zm-347.96 200.34-59.05 34.8c-2.11 1.05-2.11 4.22 0 5.27l63.27 35.85c2.11 1.05 6.33 1.05 9.49 0l59.05-34.8c2.11-1.05 2.11-4.22 0-5.27l-63.27-35.85c-3.16-1.05-7.38-1.05-9.49 0zm86.46-49.56-59.05 34.8c-2.11 1.05-2.11 4.22 0 5.27l63.27 35.85c2.11 1.05 6.33 1.05 9.49 0l59.05-34.8c2.11-1.05 2.11-4.22 0-5.27l-63.27-35.85c-2.11-2.11-6.33-2.11-9.49 0zm-87.52 340.58 59.05-34.8c2.11-1.05 2.11-4.22 0-5.27l-63.27-35.85c-2.11-1.05-6.33-1.05-9.49 0l-59.05 34.8c-2.11 1.05-2.11 4.22 0 5.27l63.27 35.85c3.16 1.05 7.38 1.05 9.49 0zm-483.98-36.9-63.27-35.85c-2.11-1.05-6.33-1.05-9.49 0l-59.05 34.8c-2.11 1.05-2.11 4.22 0 5.27l63.27 35.85c2.11 1.05 6.33 1.05 9.49 0l59.05-34.8c3.16-1.05 3.16-4.22 0-5.27zm122.31 33.74-63.27-35.85c-2.11-1.05-6.33-1.05-9.49 0l-91.73 52.72c-2.11 1.05-2.11 4.22 0 5.27l63.27 35.85c2.11 1.05 6.33 1.05 9.49 0l91.73-52.72c2.11-2.11 2.11-4.22 0-5.27zm-217.21-104.39-63.27-35.85c-2.11-1.05-6.33-1.05-9.49 0l-72.76 42.18c-2.11 1.05-2.11 4.22 0 5.27l63.27 35.85c2.11 1.05 6.33 1.05 9.49 0l72.76-42.18c2.11-1.05 3.16-4.22 0-5.27zm55.88-32.69c2.11 1.05 6.33 1.05 9.49 0l59.05-34.8c2.11-1.05 2.11-4.22 0-5.27l-63.27-35.85c-2.11-1.05-6.33-1.05-9.49 0l-59.05 34.8c-2.11 1.05-2.11 4.22 0 5.27zm274.15 175.03-63.27-35.85c-2.11-1.05-6.33-1.05-9.49 0l-113.88 66.43c-2.11 1.05-2.11 4.22 0 5.27l63.27 35.85c2.11 1.05 6.33 1.05 9.49 0l113.88-66.43c2.11-1.05 2.11-3.16 0-5.27zm48.5 75.92-63.27-35.85c-2.11-1.05-6.33-1.05-9.49 0l-72.76 42.18c-2.11 1.05-2.11 4.22 0 5.27l63.27 35.85c2.11 1.05 6.33 1.05 9.49 0l72.76-42.18c2.11-2.11 2.11-4.22 0-5.27zm323.71-624.22c2.11 1.05 6.33 1.05 9.49 0l59.05-34.8c2.11-1.05 2.11-4.22 0-5.27l-63.27-35.85c-2.11-1.05-6.33-1.05-9.49 0l-59.05 34.8c-2.11 1.05-2.11 4.22 0 5.27zm-172.93 100.17c2.11 1.05 6.33 1.05 9.49 0l59.05-34.8c2.11-1.05 2.11-4.22 0-5.27l-63.27-35.85c-2.11-1.05-6.33-1.05-9.49 0l-59.05 34.8c-2.11 1.05-2.11 4.22 0 5.27zm-385.92 223.54c2.11 1.05 6.33 1.05 9.49 0l59.05-34.8c2.11-1.05 2.11-4.22 0-5.27l-63.27-35.85c-2.11-1.05-6.33-1.05-9.49 0l-59.05 34.8c-2.11 1.05-2.11 4.22 0 5.27zm472.38-273.1c2.11 1.05 6.33 1.05 9.49 0l59.05-34.8c2.11-1.05 2.11-4.22 0-5.27l-63.27-35.85c-2.11-1.05-6.33-1.05-9.49 0l-59.05 34.8c-2.11 1.05-2.11 4.22 0 5.27zm-173.98 100.17c2.11 1.05 6.33 1.05 9.49 0l59.05-34.8c2.11-1.05 2.11-4.22 0-5.27l-63.27-35.85c-2.11-1.05-6.33-1.05-9.49 0l-59.05 34.8c-2.11 1.05-2.11 4.22 0 5.27zm-18.98 478.71c-2.11-1.05-6.33-1.05-9.49 0l-91.73 52.72c-2.11 1.05-2.11 4.22 0 5.27l63.27 35.85c2.11 1.05 6.33 1.05 9.49 0l91.73-52.72c2.11-1.05 2.11-4.22 0-5.27zm-105.44-407.01c2.11 1.05 6.33 1.05 9.49 0l59.05-34.8c2.11-1.05 2.11-4.22 0-5.27l-63.27-35.85c-2.11-1.05-6.33-1.05-9.49 0l-59.05 34.8c-2.11 1.05-2.11 4.22 0 5.27zm-87.52 50.61c2.11 1.05 6.33 1.05 9.49 0l59.05-34.8c2.11-1.05 2.11-4.22 0-5.27l-63.27-35.85c-2.11-1.05-6.33-1.05-9.49 0l-59.05 34.8c-2.11 1.05-2.11 4.22 0 5.27zm1804.12-573.61c-2.11-1.05-6.33-1.05-9.49 0l-146.56 84.35c-2.11 1.05-2.11 4.22 0 5.27l63.27 35.85c2.11 1.05 6.33 1.05 9.49 0l146.56-84.35c2.11-1.05 2.11-4.22 0-5.27zm-191.9 110.71c-2.11-1.05-6.33-1.05-9.49 0l-59.05 34.8c-2.11 1.05-2.11 4.22 0 5.27l63.27 35.85c2.11 1.05 6.33 1.05 9.49 0l59.05-34.8c2.11-1.05 2.11-4.22 0-5.27zm-1175.68 652.69 59.05-34.8c2.11-1.05 2.11-4.22 0-5.27l-63.27-35.85c-2.11-1.05-6.33-1.05-9.49 0l-59.05 34.8c-2.11 1.05-2.11 4.22 0 5.27l63.27 35.85c3.16 1.05 7.38 1.05 9.49 0zm1001.7-552.52c-2.11-1.05-6.33-1.05-9.49 0l-59.05 34.8c-2.11 1.05-2.11 4.22 0 5.27l63.27 35.85c2.11 1.05 6.33 1.05 9.49 0l59.05-34.8c2.11-1.05 2.11-4.22 0-5.27zm453.4-261.5c-2.11-1.05-6.33-1.05-9.49 0l-59.05 34.8c-2.11 1.05-2.11 4.22 0 5.27l63.27 35.85c2.11 1.05 6.33 1.05 9.49 0l59.05-34.8c2.11-1.05 2.11-4.22 0-5.27zm149.73-13.71-152.89-87.52c-2.11-1.05-6.33-1.05-9.49 0l-59.05 34.8c-2.11 1.05-2.11 4.22 0 5.27l152.89 87.52c2.11 1.05 6.33 1.05 9.49 0l59.05-34.8c2.11-2.11 2.11-4.22 0-5.27zm-927.89 462.89c-2.11-1.05-6.33-1.05-9.49 0l-72.76 42.18c-2.11 1.05-2.11 4.22 0 5.27l63.27 35.85c2.11 1.05 6.33 1.05 9.49 0l72.76-42.18c2.11-1.05 2.11-4.22 0-5.27zm219.32-126.53c-2.11-1.05-6.33-1.05-9.49 0l-91.73 52.72c-2.11 1.05-2.11 4.22 0 5.27l63.27 35.85c2.11 1.05 6.33 1.05 9.49 0l91.73-52.72c2.11-1.05 2.11-4.22 0-5.27zm-420.71 242.52c-2.11-1.05-6.33-1.05-9.49 0l-489.25 282.59c-2.11 1.05-2.11 4.22 0 5.27l63.27 35.85c2.11 1.05 6.33 1.05 9.49 0l489.25-282.59c2.11-1.05 2.11-4.22 0-5.27zm-517.72 298.4c-2.11-1.05-6.33-1.05-9.49 0l-72.76 42.18c-2.11 1.05-2.11 4.22 0 5.27l63.27 35.85c2.11 1.05 6.33 1.05 9.49 0l72.76-42.18c2.11-1.05 2.11-4.22 0-5.27zm617.89-356.39c-2.11-1.05-6.33-1.05-9.49 0l-72.76 42.18c-2.11 1.05-2.11 4.22 0 5.27l63.27 35.85c2.11 1.05 6.33 1.05 9.49 0l72.76-42.18c2.11-1.05 2.11-4.22 0-5.27zm-718.06 414.39c-2.11-1.05-6.33-1.05-9.49 0l-72.76 42.18c-2.11 1.05-2.11 4.22 0 5.27l63.27 35.85c2.11 1.05 6.33 1.05 9.49 0l72.76-42.18c2.11-1.05 2.11-4.22 0-5.27zm919.46-530.37c-2.11-1.05-6.33-1.05-9.49 0l-72.76 42.18c-2.11 1.05-2.11 4.22 0 5.27l63.27 35.85c2.11 1.05 6.33 1.05 9.49 0l72.76-42.18c2.11-1.05 2.11-4.22 0-5.27zm311.05-180.31c-2.11-1.05-6.33-1.05-9.49 0l-59.05 34.8c-2.11 1.05-2.11 4.22 0 5.27l63.27 35.85c2.11 1.05 6.33 1.05 9.49 0l59.05-34.8c2.11-1.05 2.11-4.22 0-5.27zm192.96-137.07 59.05-34.8c2.11-1.05 2.11-4.22 0-5.27l-63.27-35.85c-2.11-1.05-6.33-1.05-9.49 0l-59.05 34.8c-2.11 1.05-2.11 4.22 0 5.27l63.27 35.85c3.16 2.11 7.38 2.11 9.49 0zm-371.16 7.38 59.05-34.8c2.11-1.05 2.11-4.22 0-5.27l-63.27-35.85c-2.11-1.05-6.33-1.05-9.49 0l-59.05 34.8c-2.11 1.05-2.11 4.22 0 5.27l63.27 35.85c2.11 2.11 6.33 2.11 9.49 0zm-214.05 331.09 173.98-100.17c2.11-1.05 2.11-4.22 0-5.27l-63.27-35.85c-2.11-1.05-6.33-1.05-9.49 0l-173.98 100.17c-2.11 1.05-2.11 4.22 0 5.27l63.27 35.85c2.11 2.11 6.33 2.11 9.49 0zm489.25-287.86c2.11 1.05 6.33 1.05 9.49 0l59.05-34.8c2.11-1.05 2.11-4.22 0-5.27l-63.27-35.85c-2.11-1.05-6.33-1.05-9.49 0l-59.05 34.8c-2.11 1.05-2.11 4.22 0 5.27zm-80.14-51.67 59.05-34.8c2.11-1.05 2.11-4.22 0-5.27l-63.27-35.85c-2.11-1.05-6.33-1.05-9.49 0l-59.05 34.8c-2.11 1.05-2.11 4.22 0 5.27l63.27 35.85c2.11 1.05 6.33 1.05 9.49 0zm-496.63 390.14 59.05-34.8c2.11-1.05 2.11-4.22 0-5.27l-63.27-35.85c-2.11-1.05-6.33-1.05-9.49 0l-59.05 34.8c-2.11 1.05-2.11 4.22 0 5.27l63.27 35.85c3.16 1.05 7.38 1.05 9.49 0zm384.86-227.76c2.11 1.05 6.33 1.05 9.49 0l59.05-34.8c2.11-1.05 2.11-4.22 0-5.27l-63.27-35.85c-2.11-1.05-6.33-1.05-9.49 0l-59.05 34.8c-2.11 1.05-2.11 4.22 0 5.27zm-819.29 478.71 59.05-34.8c2.11-1.05 2.11-4.22 0-5.27l-63.27-35.85c-2.11-1.05-6.33-1.05-9.49 0l-59.05 34.8c-2.11 1.05-2.11 4.22 0 5.27l63.27 35.85c3.16 1.05 6.33 1.05 9.49 0zm86.46-50.61 59.05-34.8c2.11-1.05 2.11-4.22 0-5.27l-63.27-35.85c-2.11-1.05-6.33-1.05-9.49 0l-59.05 34.8c-2.11 1.05-2.11 4.22 0 5.27l63.27 35.85c3.16 2.11 7.38 2.11 9.49 0zm-173.98 100.17 59.05-34.8c2.11-1.05 2.11-4.22 0-5.27l-63.27-35.85c-2.11-1.05-6.33-1.05-9.49 0l-59.05 34.8c-2.11 1.05-2.11 4.22 0 5.27l63.27 35.85c3.16 2.11 7.38 2.11 9.49 0zm347.96-200.34 59.05-34.8c2.11-1.05 2.11-4.22 0-5.27l-63.27-35.85c-2.11-1.05-6.33-1.05-9.49 0l-59.05 34.8c-2.11 1.05-2.11 4.22 0 5.27l63.27 35.85c3.16 1.05 7.38 1.05 9.49 0zm-86.46 50.61 59.05-34.8c2.11-1.05 2.11-4.22 0-5.27l-63.27-35.85c-2.11-1.05-6.33-1.05-9.49 0l-59.05 34.8c-2.11 1.05-2.11 4.22 0 5.27l63.27 35.85c2.11 1.05 6.33 1.05 9.49 0zm173.98-101.22 59.05-34.8c2.11-1.05 2.11-4.22 0-5.27l-63.27-35.85c-2.11-1.05-6.33-1.05-9.49 0l-59.05 34.8c-2.11 1.05-2.11 4.22 0 5.27l63.27 35.85c2.11 2.11 6.33 2.11 9.49 0zm436.53-720.17c2.11 1.05 6.33 1.05 9.49 0l59.05-34.8c2.11-1.05 2.11-4.22 0-5.27l-16.87-9.49c-2.11-1.05-6.33-1.05-9.49 0l-59.05 34.8c-2.11 1.05-2.11 4.22 0 5.27zm-430.2 275.2c2.11 1.05 6.33 1.05 9.49 0l59.05-34.8c2.11-1.05 2.11-4.22 0-5.27l-63.27-35.85c-2.11-1.05-6.33-1.05-9.49 0l-59.05 34.8c-2.11 1.05-2.11 4.22 0 5.27zm173.98-100.17c2.11 1.05 6.33 1.05 9.49 0l59.05-34.8c2.11-1.05 2.11-4.22 0-5.27l-63.27-35.85c-2.11-1.05-6.33-1.05-9.49 0l-59.05 34.8c-2.11 1.05-2.11 4.22 0 5.27zm-280.48 161.33c2.11 1.05 6.33 1.05 9.49 0l59.05-34.8c2.11-1.05 2.11-4.22 0-5.27l-63.27-35.85c-2.11-1.05-6.33-1.05-9.49 0l-59.05 34.8c-2.11 1.05-2.11 4.22 0 5.27zm192.96-111.77c2.11 1.05 6.33 1.05 9.49 0l59.05-34.8c2.11-1.05 2.11-4.22 0-5.27l-63.27-35.85c-2.11-1.05-6.33-1.05-9.49 0l-59.05 34.8c-2.11 1.05-2.11 4.22 0 5.27zm-366.94 211.94c2.11 1.05 6.33 1.05 9.49 0l59.05-34.8c2.11-1.05 2.11-4.22 0-5.27l-63.27-35.85c-2.11-1.05-6.33-1.05-9.49 0l-59.05 34.8c-2.11 1.05-2.11 4.22 0 5.27zm87.52-49.56c2.11 1.05 6.33 1.05 9.49 0l59.05-34.8c2.11-1.05 2.11-4.22 0-5.27l-63.27-35.85c-2.11-1.05-6.33-1.05-9.49 0l-59.05 34.8c-2.11 1.05-2.11 4.22 0 5.27zm449.18-285.75c2.11 1.05 6.33 1.05 9.49 0l59.05-34.8c2.11-1.05 2.11-4.22 0-5.27l-16.87-9.49c-2.11-1.05-6.33-1.05-9.49 0l-59.05 34.8c-2.11 1.05-2.11 4.22 0 5.27zm260.44-150.78c2.11 1.05 6.33 1.05 9.49 0l59.05-34.8c2.11-1.05 2.11-4.22 0-5.27l-16.87-9.49c-2.11-1.05-6.33-1.05-9.49 0l-59.05 34.8c-2.11 1.05-2.11 4.22 0 5.27zm131.8 75.92c2.11 1.05 6.33 1.05 9.49 0l59.05-34.8c2.11-1.05 2.11-4.22 0-5.27l-63.27-35.85c-2.11-1.05-6.33-1.05-9.49 0l-59.05 34.8c-2.11 1.05-2.11 4.22 0 5.27zm191.9 205.61 59.05-34.8c2.11-1.05 2.11-4.22 0-5.27l-63.27-35.85c-2.11-1.05-6.33-1.05-9.49 0l-59.05 34.8c-2.11 1.05-2.11 4.22 0 5.27l63.27 35.85c2.11 1.05 6.33 1.05 9.49 0zm-497.69-181.36c2.11 1.05 6.33 1.05 9.49 0l59.05-34.8c2.11-1.05 2.11-4.22 0-5.27l-16.87-9.49c-2.11-1.05-6.33-1.05-9.49 0l-59.05 34.8c-2.11 1.05-2.11 4.22 0 5.27zm-709.63 436.53c2.11 1.05 6.33 1.05 9.49 0l59.05-34.8c2.11-1.05 2.11-4.22 0-5.27l-63.27-35.85c-2.11-1.05-6.33-1.05-9.49 0l-59.05 34.8c-2.11 1.05-2.11 4.22 0 5.27z" fill="#455a64"/><path d="m2199.53 3153.27 535.65-308.95c15.82-9.49 42.18-9.49 57.99 0l306.84 177.14c15.82 9.49 15.82 24.25 0 33.74l-535.65 308.95c-15.82 9.49-42.18 9.49-57.99 0l-306.84-177.14c-15.82-9.49-15.82-24.25 0-33.74z" fill="#263238"/><path d="m1916.29 1146.61c-100.07 90-186.29 84.96-240.42 43.42-54.12 103.85-140.35 208.32-240.42 234.12l-57.27 154.19s30.84 35.25 30.84 119.58c0 37.76-5.66 71.75-13.85 104.48-10.7 41.54-23.92 84.96-23.92 156.71 0 48.46 6.29 96.29 30.84 139.09 14.48 25.18 34.62 45.95 62.31 62.94-18.25-10.7-73-42.17-86.85-50.35-29.58-16.99-50.98-38.39-66.08-64.82-24.55-43.42-30.84-90.63-30.84-139.09 0-71.75 13.22-115.17 23.92-156.71 8.18-33.35 14.48-66.71 14.48-104.47 0-84.33-30.84-119.58-30.84-119.58l57.27-154.19c100.07-25.8 186.29-130.28 240.42-234.12 54.13 41.54 140.35 46.57 240.42-43.42l90 52.24z" fill="#f6983a"/><path d="m1617.35 1156.68-31.47-18.25c9.44 7.55 20.14 13.22 31.47 18.25z" fill="#fff" fill-opacity=".8"/><path d="m1826.3 1095c-82.45 73.64-155.45 83.71-208.95 61.68l58.53 33.99c54.12 41.54 140.35 46.57 240.42-43.43z" fill="#fff" fill-opacity=".85098"/><path d="m1585.88 1138.43c-54.12 103.84-140.35 208.32-240.42 234.12l90 52.24c100.07-25.8 186.29-130.28 240.42-234.12z" fill="#fff" fill-opacity=".65098"/><path d="m1345.46 1372.55-56.64 154.19 90 51.61 56.64-154.19z" fill="#fff" fill-opacity=".54902"/><path d="m1402.1 2098.83c-24.55-43.42-30.84-90.63-30.84-139.09 0-71.75 13.22-115.17 23.92-156.71 8.18-33.35 13.85-66.71 13.85-104.47 0-84.33-30.84-119.58-30.84-119.58l-90-52.24s30.84 35.24 30.84 119.58c0 37.76-5.66 71.75-14.48 104.47-10.7 41.54-23.92 84.96-23.92 156.71 0 48.46 6.29 96.29 30.84 139.09 15.11 25.8 36.5 47.83 66.08 64.82 13.85 8.18 68.6 39.65 86.85 50.35-27.06-16.99-47.83-38.39-62.31-62.94z" fill="#fff" fill-opacity=".4"/><path d="m1402.1 2098.83c-24.55-43.42-30.84-90.63-30.84-139.09 0-71.75 13.22-115.17 23.92-156.71 8.18-33.35 13.85-66.71 13.85-104.47 0-84.33-30.84-119.58-30.84-119.58l-90-52.24s30.84 35.24 30.84 119.58c0 37.76-5.66 71.75-14.48 104.47-10.7 41.54-23.92 84.96-23.92 156.71 0 48.46 6.29 96.29 30.84 139.09 15.11 25.8 36.5 47.83 66.08 64.82 13.85 8.18 68.6 39.65 86.85 50.35-27.06-16.99-47.83-38.39-62.31-62.94z" fill-opacity=".05098"/><path d="m1675.88 2203.94c-149.16 1.89-234.75-37.76-273.77-105.73-24.55-43.42-30.84-90.63-30.84-139.09 0-71.75 13.22-115.17 23.92-156.71 8.18-33.36 14.48-66.71 14.48-104.48 0-84.33-30.84-119.58-30.84-119.58l57.27-154.19c100.07-25.81 186.29-130.28 240.42-234.12 54.12 41.54 140.35 46.57 240.42-43.42l57.27 88.11s-30.84 70.49-30.84 154.82c0 37.76 5.66 64.82 14.48 88.11 10.7 29.58 23.92 57.27 23.92 129.02 0 48.46-6.29 103.85-30.84 174.96-40.28 113.29-125.87 251.74-275.03 422.3z" fill="#f7a131"/><path d="m1675.88 2203.94c-149.16 1.89-234.75-37.76-273.77-105.73-24.55-43.42-30.84-90.63-30.84-139.09 0-71.75 13.22-115.17 23.92-156.71 8.18-33.36 14.48-66.71 14.48-104.48 0-84.33-30.84-119.58-30.84-119.58l57.27-154.19c100.07-25.81 186.29-130.28 240.42-234.12 54.12 41.54 140.35 46.57 240.42-43.42l57.27 88.11s-30.84 70.49-30.84 154.82c0 37.76 5.66 64.82 14.48 88.11 10.7 29.58 23.92 57.27 23.92 129.02 0 48.46-6.29 103.85-30.84 174.96-40.28 113.29-125.87 251.74-275.03 422.3z" fill="#fff" fill-opacity=".74902"/><path d="m1658.26 2165.55c-115.8-1.26-190.7-30.21-222.17-86.22-18.25-31.47-25.8-68.6-25.8-120.21 0-59.16 9.44-96.92 18.88-132.79 1.26-5.04 2.52-9.44 3.78-13.85 10.7-42.17 15.11-77.41 15.11-113.92 0-61.68-14.48-101.96-26.43-123.99l44.05-118.32c106.99-37.13 184.4-142.87 225.31-212.09 22.03 9.44 45.32 13.85 69.86 13.85 48.46 0 97.55-18.25 146.64-53.5l23.29 35.87c-10.07 28.95-26.43 85.59-26.43 150.42 0 37.76 5.03 69.23 16.36 101.33 1.26 3.15 2.52 6.92 3.78 10.07 9.44 25.18 17.62 49.09 17.62 105.73 0 54.12-8.81 104.47-28.95 162.37-38.39 110.77-123.99 243.56-254.89 395.24z" fill="#f7a131" fill-opacity=".74902"/><path d="m1658.26 2165.55c-115.8-1.26-190.7-30.21-222.17-86.22-18.25-31.47-25.8-68.6-25.8-120.21 0-59.16 9.44-96.92 18.88-132.79 1.26-5.04 2.52-9.44 3.78-13.85 10.7-42.17 15.11-77.41 15.11-113.92 0-61.68-14.48-101.96-26.43-123.99l44.05-118.32c106.99-37.13 184.4-142.87 225.31-212.09 22.03 9.44 45.32 13.85 69.86 13.85 48.46 0 97.55-18.25 146.64-53.5l23.29 35.87c-10.07 28.95-26.43 85.59-26.43 150.42 0 37.76 5.03 69.23 16.36 101.33 1.26 3.15 2.52 6.92 3.78 10.07 9.44 25.18 17.62 49.09 17.62 105.73 0 54.12-8.81 104.47-28.95 162.37-38.39 110.77-123.99 243.56-254.89 395.24z" fill="#fff" fill-opacity=".4"/><path d="m1658.26 2165.55c-115.8-1.26-190.7-30.21-222.17-86.22-18.25-31.47-25.8-68.6-25.8-120.21 0-59.16 9.44-96.92 18.88-132.79 1.26-5.04 2.52-9.44 3.78-13.85 10.7-42.17 15.11-77.41 15.11-113.92 0-61.68-14.48-101.96-26.43-123.99l44.05-118.32c106.99-37.13 184.4-142.87 225.31-212.09 22.03 9.44 45.32 13.85 69.86 13.85 48.46 0 97.55-18.25 146.64-53.5l23.29 35.87c-10.07 28.95-26.43 85.59-26.43 150.42 0 37.76 5.03 69.23 16.36 101.33 1.26 3.15 2.52 6.92 3.78 10.07 9.44 25.18 17.62 49.09 17.62 105.73 0 54.12-8.81 104.47-28.95 162.37-38.39 110.77-123.99 243.56-254.89 395.24z" fill-opacity=".14902"/><path d="m1462.52 2111.42c39.65 34.62 105.1 52.87 195.73 54.12l-57.9-32.73c-52.24-.63-98.18-7.55-137.83-21.4z" fill="#fff" fill-opacity=".8"/><path d="m1899.93 1222.13 30.21 17.63-23.29-35.25-13.21 8.81z" fill-opacity=".14902"/><path d="m1889.86 1473.88c-11.33-32.1-16.36-63.57-16.36-101.33 0-64.82 16.36-121.47 26.43-150.42l-5.66-9.44c-44.68 29.58-89.37 44.68-133.42 44.68-24.55 0-47.83-5.03-69.86-13.85-40.91 69.23-118.32 174.96-225.31 212.09l-44.05 118.32c11.96 22.03 26.43 62.31 26.43 123.98 0 36.5-5.04 71.75-15.11 113.92-1.26 4.41-2.52 9.44-3.78 13.85-9.44 36.5-18.88 74.26-18.88 132.79 0 51.61 8.18 88.74 25.8 120.21 8.81 15.73 21.4 29.58 37.76 40.91 38.39 17.62 90 27.06 154.19 27.69 130.91-151.68 216.5-284.47 254.89-395.24 20.14-57.9 28.95-108.25 28.95-162.38 0-57.27-8.81-80.56-17.62-105.73-1.89-3.15-3.15-6.92-4.41-10.07z" fill="#455a64"/><path d="m1465.04 1455.63-44.05 118.32c11.96 22.03 26.43 62.31 26.43 123.98 0 36.5-5.04 71.75-15.11 113.92-1.26 4.41-2.52 9.44-3.78 13.85-9.44 36.5-18.88 74.26-18.88 132.79 0 51.61 8.18 88.74 25.8 120.21 8.81 15.73 21.4 29.58 37.76 40.91 38.39 17.62 90 27.06 154.19 27.69v-435.52l62.94-18.88v-449.36c-17.62 29.58-38.39 59.79-62.94 89.37-41.54 50.98-96.29 100.07-162.38 122.72z" fill="#37474f"/><path d="m1779.09 1550.66c-.63-1.26-1.26-2.52-2.52-3.15 0 0 0 0 0-.63-1.89-1.89-3.78-3.78-6.29-5.04l-20.77-11.96c-3.78-1.89-7.55-3.78-11.96-4.41-2.52-.63-5.03-1.26-7.55-1.26v-62.31c0-30.84-11.96-56.01-32.1-67.34-19.51-11.33-44.05-10.07-67.97 4.41-44.68 25.8-79.93 88.74-79.93 143.49v73.01l-41.54 23.92c-1.26.63-2.52 1.89-3.78 2.52-.63 0-.63.63-1.26.63-3.78 3.15-5.66 7.55-5.66 11.33v251.12c0 1.26 0 1.89.63 3.15 1.26 3.78 3.78 6.92 8.18 10.07.63.63 1.26 1.26 2.52 1.26l10.07 5.66 10.7 6.29c3.78 2.52 8.81 3.78 13.22 5.03 12.59 2.52 27.69 1.26 37.76-5.03l190.07-110.14c6.92-4.41 10.7-9.44 10.7-15.1v-251.12c-.63-.63-1.26-2.52-2.52-4.41zm-188.81-8.18c0-40.28 27.06-89.37 59.16-108.25 10.7-6.29 20.77-8.18 27.06-4.41 7.55 4.41 11.96 16.36 11.96 32.1v73.01l-54.13 31.47-44.05 25.18v-49.09z" fill="#263238"/><path d="m1803.01 1567.65c0-5.67-3.78-10.7-10.7-15.11l-20.77-11.96c-14.48-8.18-37.13-8.18-51.61 0l-190.07 110.14c-6.92 4.4-10.7 9.44-10.7 15.1v251.12c0 5.66 3.78 10.7 10.7 15.11l20.77 11.96c14.48 8.18 37.13 8.18 51.61 0l190.07-110.14c6.92-4.41 10.7-9.44 10.7-15.1z" fill="#fbc12f"/><path d="m1550.63 1692.27-20.77-11.96c-14.48-8.18-14.48-21.4 0-29.58l190.07-110.14c14.48-8.18 37.13-8.18 51.61 0l20.77 11.96c14.48 8.18 14.48 21.4 0 29.58l-190.07 110.14c-14.48 8.81-37.76 8.81-51.61 0z" fill="#fff" fill-opacity=".4"/><path d="m1576.44 1698.56v251.12c-9.44 0-18.88-1.89-25.8-6.29l-20.77-11.96c-6.92-4.41-10.7-9.44-10.7-15.11v-251.12c0 5.67 3.78 10.7 10.7 15.11l20.77 11.96c6.92 4.41 16.36 6.29 25.8 6.29z" fill-opacity=".101961"/><path d="m1714.9 1823.17-45.32 26.43 6.92-82.45c-5.67-3.15-8.81-10.07-8.81-20.14 0-18.25 10.7-39.02 24.55-47.2 13.85-7.55 24.55.63 24.55 18.88 0 10.07-3.78 21.4-8.81 30.21l6.92 74.26z" fill="#455a64"/><path d="m1714.9 1823.17-41.54-23.91-4.41 49.72z" fill="#37474f"/><path d="m1692.24 1699.82c-8.81 5.04-16.36 15.74-20.77 27.69l36.5 21.4c5.66-9.44 8.81-20.14 8.81-30.21 0-18.25-11.33-26.43-24.55-18.88z" fill="#37474f"/><path d="m1751.4 1573.32v-100.7c0-30.84-11.96-56.01-32.1-67.34-19.51-11.33-44.05-10.07-67.97 4.41-44.68 25.8-79.93 88.74-79.93 143.49v101.33c0 3.15 1.89 6.29 6.29 8.18 8.18 4.41 20.77 4.41 28.95 0 3.78-2.52 6.29-5.67 6.29-8.18v-101.33c0-40.28 27.06-89.37 59.16-108.25 10.7-6.29 20.77-8.18 27.06-4.41 7.55 4.41 11.96 16.36 11.96 32.1v100.7c0 3.15 1.89 6.29 6.29 8.18 8.18 4.41 20.77 4.41 28.95 0 3.15-1.89 5.04-5.04 5.04-8.18z" fill="#e0e0e0"/><path d="m1806.84 2020.15 46.4-26.36 17.92-22.14-46.39 26.36z" fill="#27debf"/><path d="m1806.84 2020.15 46.4-26.36 17.92-22.14-46.39 26.36z" fill-opacity=".4"/><path d="m1932.32 2092.91 46.39-26.36 39.02-34.8-46.4 27.41z" fill="#27debf"/><path d="m1932.32 2092.91 46.39-26.36 39.02-34.8-46.4 27.41z" fill-opacity=".4"/><path d="m2327.73 2185.7c10.54 12.65 17.93 31.63 18.98 50.61-10.54-12.65-17.93-31.63-18.98-50.61zm107.55 1.05c-15.82-106.5-72.76-211.94-141.29-250.95-32.69-18.98-63.27-20.03-87.52-5.27-7.38 4.22-33.74 18.98-43.23 25.31-1.05 0-2.11 1.05-2.11 1.05-2.11 1.05-4.22 2.11-5.27 3.16-3.16 2.11-6.33 5.27-10.54 8.44 0 0-1.05 1.05-1.05 1.05-1.05 1.05-3.16 3.16-4.22 4.22-2.11 2.11-3.16 4.22-4.22 5.27-3.16 4.22-6.33 8.44-8.44 12.65-1.05 2.11-2.11 4.22-4.22 7.38l-381.7-220.37-46.39 26.36v29.52l4.22 2.11 3.16 2.11v6.33l-7.38 4.22v16.87l55.88 119.15 55.88 31.63 17.93-22.14 48.5 29.52 28.47 48.5 30.58 17.93 39.01-34.8 47.45 27.41 15.82 66.43 80.14 46.39c4.22 16.87 9.49 33.74 14.76 49.56 1.05 2.11 1.05 3.16 2.11 5.27 26.36 69.59 68.54 129.69 115.99 157.11 6.33 3.16 11.6 6.33 17.93 8.44 3.16 1.05 6.33 2.11 9.49 3.16s6.33 1.05 8.44 2.11c9.49 2.11 18.98 2.11 28.47 0 1.05 0 2.11-1.05 4.22-1.05s3.16-1.05 5.27-2.11c1.05-1.05 3.16-1.05 4.22-2.11 1.05-1.05 3.16-1.05 4.22-2.11 1.05-1.05 3.16-1.05 4.22-2.11 1.05 0 1.05-1.05 2.11-1.05 0 0 1.05 0 1.05-1.05 10.54-6.33 36.9-21.09 44.29-25.31 34.8-20.03 57.99-71.7 57.99-145.51 0-14.76-1.05-33.74-4.22-52.72z" fill="#f7a131"/><path d="m2346.71 2243.69c0 28.47-14.76 42.18-32.69 31.63-17.93-10.54-32.69-42.18-32.69-70.65s14.76-42.18 32.69-31.63c5.27 3.16 9.49 7.38 13.71 12.65 2.11 18.98 9.49 37.96 18.98 50.61v7.38z" fill-opacity=".4"/><path d="m2439.5 2243.69c0 72.76-23.2 124.42-57.99 145.51-7.38 4.22-32.69 18.98-44.29 25.31 33.74-21.09 55.88-72.76 55.88-143.4 0-18.98-1.05-37.96-4.22-55.88-15.82-106.5-72.76-210.88-141.29-250.95-31.63-17.93-61.16-20.03-84.35-7.38 10.54-6.33 36.9-21.09 43.23-25.31 24.25-13.71 54.83-13.71 87.52 5.27 68.54 39.01 125.48 144.46 141.29 250.95 3.16 17.93 4.22 36.9 4.22 55.88z" fill="#fff" fill-opacity=".4"/><path d="m2393.1 2270.05c0 71.7-22.14 122.31-55.88 143.4 10.54-6.33 36.9-21.09 44.29-25.31 34.8-20.03 57.99-71.7 57.99-145.51 0-3.16 0-5.27 0-8.44-15.82 9.49-31.63 18.98-46.39 26.36v9.49z" fill="#fbc12f"/><path d="m2393.1 2270.05c0 71.7-22.14 122.31-55.88 143.4 10.54-6.33 36.9-21.09 44.29-25.31 34.8-20.03 57.99-71.7 57.99-145.51 0-3.16 0-5.27 0-8.44-15.82 9.49-31.63 18.98-46.39 26.36v9.49z" fill-opacity=".101961"/><path d="m2109.46 2077.09v14.76l-414.39-239.35 7.38-4.22v-6.33z" fill-opacity=".14902"/><path d="m2109.46 2083.42v8.43l-414.39-239.35 7.38-4.22z" fill-opacity=".14902"/><path d="m2142.83 2219.17c12.63 41.4 31.99 79.63 55.28 109.15 23.29 29.54 49.32 48.86 74.35 55.2s47.77-.63 64.92-19.92c17.17-19.29 27.88-49.9 30.59-87.41 2.72-37.51-2.7-80.02-15.47-121.38-12.63-41.4-31.99-79.63-55.28-109.15-23.29-29.53-49.32-48.86-74.35-55.2s-47.77.63-64.92 19.92c-17.17 19.29-27.88 49.89-30.59 87.41-2.72 37.5 2.7 80.02 15.47 121.37z" fill-opacity=".14902" stroke="#000" stroke-miterlimit="22.9256" stroke-opacity=".14902" stroke-width="7.71"/><path d="m2123.17 2001.17c-6.33 12.65-11.6 28.47-14.76 45.34l-413.33-238.3 46.39-26.36z" fill="#fff" fill-opacity=".501961"/><path d="m4134.39 3409.49c2.11 14.76 3.16 54.83 76.97 65.37s119.15-13.71 139.18-49.56c20.03-34.8 14.76-64.32 17.93-97.01 3.16-32.69 30.58-50.61 37.96-66.43 11.6-25.31-5.27-63.27-5.27-63.27l-266.77 210.88z" fill="#263238"/><path d="m3598.75 3294.56c-3.16 2.11-3.16 25.31 5.27 35.85 5.27 7.38 56.94 41.12 118.1 31.63s90.68-26.36 124.42-48.5c34.8-22.14 60.1-26.36 95.95-27.41 34.8-1.05 61.16-9.49 64.32-17.93 4.22-15.82 4.22-26.36-3.16-26.36z" fill="#263238"/><path d="m4384.29 3141.67c-9.49 66.43-139.18 61.16-128.64 8.44l-23.2-162.38 146.56 4.22 5.27 149.73z" fill="#ffa8a7"/><path d="m4139.66 3376.8c6.33-11.6 25.31-29.52 33.74-40.07 43.23-56.94 70.65-122.31 75.92-195.07 0-4.22 1.05-11.6 4.22-13.71 4.22-2.11 8.44 1.05 11.6 3.16 5.27 2.11 12.65 5.27 23.2 6.33 26.36 3.16 54.83-3.16 61.16-2.11 5.27 1.05 6.33 15.82 6.33 33.74 9.49-6.33 12.65-17.93 21.09-24.25 4.22-3.16 6.33-4.22 6.33-9.49 0-4.22 0-7.38 0-11.6 6.33-2.11 12.65 23.2 17.93 43.23 6.33 22.14 14.76 48.5 5.27 70.65-5.27 12.65-12.65 24.25-21.09 35.85-12.65 20.03-24.25 41.12-26.36 65.37-1.05 10.54 0 21.09-2.11 30.58-5.27 35.85-29.52 64.32-64.32 74.86-44.29 13.71-111.77 11.6-151.84-18.98-12.65-13.71-8.44-36.9-1.05-48.5z" fill="#37474f"/><path d="m3972.01 3130.07c-35.85 27.41-78.03 44.29-122.31 24.25l-10.54-273.1 147.62 26.36-14.76 222.48z" fill="#ffa8a7"/><path d="m3628.27 3248.16c9.49-3.16 18.98-6.33 28.47-10.54 26.36-10.54 52.72-23.2 76.97-37.96 10.54-6.33 21.09-13.71 31.63-21.09s21.09-15.82 31.63-24.25c5.27-4.22 10.54-10.54 14.76-15.82 8.44-10.54 15.82-23.2 22.14-35.85 1.05-3.16 3.16-6.33 5.27-7.38 3.16-2.11 7.38 0 10.54 2.11s5.27 4.22 8.44 5.27c3.16 1.05 5.27 2.11 8.44 3.16 9.49 4.22 18.98 6.33 28.47 7.38 36.9 3.16 37.96-4.22 40.07 7.38 0 3.16 1.05 7.38 0 13.71 20.03-3.16 34.8-9.49 35.85-16.87l2.11-24.25c20.03-2.11 21.09 33.74 27.41 72.76 5.27 31.63 12.65 54.83 4.22 78.03-29.52 26.36-82.24 20.03-111.77 24.25-42.18 7.38-62.21 37.96-120.2 57.99-94.9 32.69-153.95-5.27-171.87-21.09-10.54-20.03-12.65-44.29 27.41-56.94z" fill="#37474f"/><path d="m4342.11 1513.64c7.38 115.99 21.09 285.75 25.31 419.66 8.44 252.01 5.27 538.81 5.27 538.81s24.25 89.63 27.41 161.33c6.33 161.33 5.27 521.94 5.27 521.94s-66.43 67.48-166.6 14.76c0 0-88.57-506.12-112.82-665.34-23.2-150.78-69.59-453.4-69.59-453.4l-21.09 429.15s24.25 87.52 15.82 205.61c-5.27 73.81-47.45 437.59-47.45 437.59-37.96 35.85-149.73 16.87-175.03-12.65 0 0-39.01-537.76-43.23-615.78-9.49-167.65-34.8-793.98-22.14-892.04 12.65-95.95 578.88-89.63 578.88-89.63z" fill="#000c29"/><path d="m4056.36 2051.39-29.52-194.01s-80.14-14.76-139.18-59.05c0 0 23.2 51.67 111.77 88.57l28.47 180.31 7.38 413.33 21.09-429.15z"/><path d="m4246.16 327.41s3.16 0 6.33 1.05c-3.16-14.76 3.16-29.52 16.87-35.85 15.82-7.38 35.85 1.05 44.29 17.93l-47.45 22.14c12.65 5.27 28.47 14.76 35.85 30.58 12.65 27.41-4.22 84.35-21.09 155-17.93 70.65-27.41 101.22-39.01 130.75-8.44 21.09-22.14 21.09-22.14 21.09v-70.65l3.16-57.99s-37.96-51.67-42.18-93.84c-5.27-53.78 6.33-75.92 6.33-75.92l59.05-44.29z" fill="#263238"/><path d="m3986.77 267.31c65.37 0 119.15 53.78 119.15 119.15s-53.78 119.15-119.15 119.15-119.15-53.78-119.15-119.15c0-66.43 53.78-119.15 119.15-119.15z" fill="#263238"/><path d="m4220.85 533.03c13.71 12.65 25.31-18.98 37.96-31.63 11.6-12.65 50.61-29.52 69.59 11.6 20.03 41.12-17.93 98.06-46.39 110.71-42.18 20.03-61.16-23.2-61.16-23.2v177.14c-44.29 80.14-141.29 61.16-186.63 72.76-8.44-32.69-5.27-45.34 0-63.27v-57.99s-34.8 6.33-57.99 3.16c-39.01-6.33-59.05-37.96-70.65-79.08-18.98-67.48-22.14-179.25 3.16-310 43.23-33.74 188.74-28.47 279.42 29.52-7.38 115.99 18.98 148.67 32.69 160.27z" fill="#ffa8a7"/><path d="m4033.17 730.2s86.46-16.87 115.99-32.69c20.03-10.54 36.9-29.52 42.18-41.12 0 0-5.27 25.31-24.25 48.5-22.14 28.47-133.91 48.5-133.91 48.5v-23.2z" fill="#f28f8f"/><path d="m3848.64 463.43c0 8.44 5.27 15.82 8.44 18.98 1.05 2.11 2.11 4.22 3.16 6.33 3.16 12.65 5.27 36.9 10.54 49.56 5.27 13.71 17.93 34.8 52.72 35.85 7.38 0 12.65 0 17.93-1.05h1.05c5.27-1.05 10.54-3.16 14.76-5.27h1.05s1.05 0 1.05-1.05c0 0 1.05 0 1.05-1.05 0 0 1.05-1.05 1.05-1.05 1.05 0 1.05-1.05 2.11-1.05 0 0 1.05-1.05 1.05-1.05 1.05-1.05 2.11-2.11 3.16-3.16 5.27-5.27 9.49-11.6 12.65-18.98 8.44-16.87 6.33-41.12 18.98-44.29h1.05 2.11c16.87 1.05 14.76 27.41 24.25 46.39s25.31 37.96 62.21 39.01h5.27 4.22c3.16 0 6.33 0 8.44-1.05 1.05 0 2.11 0 3.16-1.05 1.05 0 2.11 0 3.16-1.05h2.11c4.22-1.05 7.38-3.16 10.54-4.22 1.05-1.05 2.11-1.05 3.16-2.11 2.11-1.05 4.22-3.16 6.33-5.27 6.33-5.27 9.49-11.6 11.6-16.87 6.33-12.65 8.44-36.9 11.6-48.5 1.05-3.16 2.11-5.27 3.16-7.38 2.11-3.16 8.44-9.49 8.44-17.93s-5.27-14.76-10.54-15.82c-3.16 0-6.33-1.05-9.49-1.05-29.52-4.22-67.48-6.33-90.68-1.05-29.52 7.38-39.01 15.82-55.88 15.82-14.76-1.05-24.25-10.54-51.67-20.03-22.14-7.38-57.99-7.38-85.41-6.33-3.16 0-5.27 0-8.44 1.05-5.27 0-9.49 7.38-9.49 14.76zm188.74 22.14c1.05-2.11 4.22-4.22 8.44-6.33 0 0 1.05 0 1.05-1.05h1.05c1.05 0 3.16-1.05 4.22-2.11 1.05 0 2.11-1.05 4.22-1.05 4.22-1.05 8.44-2.11 12.65-3.16 1.05 0 3.16-1.05 5.27-1.05 4.22-1.05 8.44-1.05 12.65-2.11h3.16c27.41-2.11 45.34 5.27 50.61 10.54 6.33 6.33 3.16 31.63 0 44.29v1.05 1.05c0 1.05-1.05 3.16-1.05 5.27 0 1.05 0 2.11-1.05 3.16-1.05 2.11-1.05 3.16-2.11 5.27 0 1.05 0 1.05-1.05 2.11v1.05 1.05s0 1.05-1.05 1.05c0 1.05-1.05 1.05-1.05 2.11 0 1.05-1.05 1.05-1.05 2.11 0 1.05-1.05 1.05-1.05 2.11-7.38 9.49-18.98 17.93-39.01 17.93s-32.69-7.38-41.12-16.87c-8.44-8.44-11.6-18.98-12.65-26.36-4.22-14.76-6.33-32.69-1.05-40.07zm-162.38-16.87c1.05-1.05 4.22-3.16 7.38-4.22 1.05 0 2.11-1.05 3.16-1.05h2.11 1.05 1.05 1.05c2.11 0 4.22-1.05 6.33-1.05h3.16 2.11 2.11 4.22 1.05 1.05c4.22 0 8.44 1.05 12.65 1.05 20.03 3.16 40.07 12.65 45.34 21.09s4.22 25.31 1.05 40.07c-1.05 3.16-1.05 6.33-3.16 9.49v1.05 1.05 1.05 1.05c0 1.05-1.05 1.05-1.05 2.11 0 1.05-1.05 1.05-1.05 2.11v1.05s0 1.05-1.05 1.05c0 0 0 1.05-1.05 1.05-7.38 10.54-20.03 18.98-41.12 17.93-8.44 0-14.76-2.11-21.09-5.27-18.98-10.54-24.25-32.69-26.36-43.23-2.11-14.76-5.27-41.12 1.05-46.39z" fill="#263238"/><path d="m4156.54 460.27 126.53 28.47s-14.76 2.11-29.52 18.98l-97.01-17.93z" fill="#263238"/><path d="m3875 512.99c2.11 10.54 6.33 32.69 26.36 43.23 5.27 3.16 12.65 5.27 21.09 5.27 22.14 1.05 34.8-7.38 41.12-17.93s1.05-1.05 1.05-1.05 1.05-1.05 1.05-1.05 0 0 0-1.05 1.05-1.05 1.05-2.11c0-1.05 1.05-1.05 1.05-2.11v-1.05s0 0 0-1.05v-1.05s0 0 0-1.05c1.05-3.16 2.11-6.33 3.16-9.49 3.16-14.76 4.22-31.63-1.05-40.07s-25.31-17.93-45.34-21.09c-4.22-1.05-8.44-1.05-12.65-1.05h-1.05-1.05c-1.05 0-3.16 0-4.22 0 0 0-1.05 0-2.11 0-1.05 0-1.05 0-2.11 0-1.05 0-2.11 0-3.16 0-2.11 0-4.22 0-6.33 1.05h-1.05-1.05-1.05s-1.05 0-2.11 0c-1.05 0-2.11 1.05-3.16 1.05-3.16 1.05-5.27 3.16-7.38 4.22-7.38 7.38-4.22 33.74-1.05 46.39z" fill="#37474f"/><path d="m4037.39 524.59c1.05 7.38 5.27 17.93 12.65 26.36 8.44 8.44 21.09 15.82 41.12 16.87 20.03 0 31.63-7.38 39.01-17.93 0 0 1.05-1.05 1.05-2.11 0 0 1.05-1.05 1.05-2.11 0 0 1.05-1.05 1.05-2.11 0 0 0-1.05 1.05-1.05v-1.05-1.05s1.05-1.05 1.05-2.11c1.05-2.11 1.05-3.16 2.11-5.27 0-1.05 1.05-2.11 1.05-3.16 0-2.11 1.05-3.16 1.05-5.27v-1.05-1.05c3.16-12.65 6.33-39.01 0-44.29-6.33-6.33-23.2-12.65-50.61-10.54-1.05 0-2.11 0-3.16 0-4.22 0-8.44 1.05-12.65 2.11-2.11 0-3.16 1.05-5.27 1.05-4.22 1.05-8.44 2.11-12.65 3.16-1.05 0-2.11 1.05-4.22 1.05-1.05 1.05-3.16 1.05-4.22 2.11 0 0 0 0-1.05 0 0 0-1.05 0-1.05 1.05-4.22 2.11-6.33 4.22-8.44 6.33-4.22 8.44-2.11 26.36 1.05 40.07z" fill="#37474f"/><path d="m3878.17 251.49c0-1.05 0-3.16 1.05-4.22 0-3.16 1.05-5.27 3.16-7.38 6.33-6.33 16.87 9.49 21.09 12.65s8.44 6.33 12.65 9.49c1.05 1.05 11.6 6.33 11.6 7.38-1.05-14.76-3.16-29.52 0-43.23 2.11-9.49 4.22-31.63 15.82-33.74 7.38-1.05 12.65 4.22 17.93 9.49 47.45 44.29 108.61 23.2 165.54 25.31 47.45 1.05 104.39 21.09 126.53 67.48 9.49 21.09 11.6 43.23-7.38 57.99-12.65 9.49-24.25 9.49-31.63 24.25-2.11 4.22-12.65 48.5-6.33 48.5-24.25 2.11-47.45-12.65-52.72-35.85-1.05-5.27-4.22-13.71-5.27-18.98-2.11-7.38-7.38-9.49-13.71-8.44-14.76 3.16-24.25 9.49-36.9 12.65-36.9 10.54-82.24 14.76-119.15 7.38-28.47-5.27-54.83-18.98-74.86-40.07-23.2-25.31-30.58-59.05-27.41-90.68z" fill="#263238"/><path d="m4063.75 437.07 41.12 6.33c1.05-11.6-6.33-23.2-17.93-24.25-11.6-2.11-22.14 6.33-23.2 17.93z" fill="#263238"/><path d="m4054.26 631.09-34.8 9.49c2.11 10.54 11.6 15.82 22.14 13.71 8.44-3.16 14.76-13.71 12.65-23.2z" fill="#f28f8f"/><path d="m3905.58 439.18 42.18-4.22c-1.05-11.6-10.54-20.03-22.14-18.98-12.65 1.05-21.09 11.6-20.03 23.2z" fill="#263238"/><path d="m4007.86 497.18-5.27 98.06-54.83-14.76 54.83-85.41c2.11 1.05 4.22 1.05 5.27 2.11z" fill="#f28f8f"/><path d="m3875 869.39c-35.85 23.2-84.35 53.78-97.01 86.46-12.65 32.69-46.39 224.59-50.61 285.75 0 0 51.67 25.31 100.17 28.47z" fill="#00dfe7"/><path d="m4296.77 777.65c90.68 49.56 179.25 123.37 198.23 151.84 0 0-52.72 176.09-99.12 259.39-46.39 83.3-71.7 330.03-71.7 330.03s-318.44 105.44-417.55 113.88c-100.17 8.44-112.82-33.74-112.82-33.74s-2.11-275.2 21.09-459.73c23.2-184.52 17.93-238.3 60.1-269.93 27.41-20.03 144.46-71.7 144.46-71.7v52.72c65.37 1.05 277.31-72.76 277.31-72.76z" fill="#f4f4f4"/><path d="m4219.8 702.79v13.71c-2.11 13.71-28.47 43.23-93.84 72.76-66.43 29.52-92.79 60.1-92.79 60.1s25.31 0 51.67 9.49c29.52 10.54 79.08 48.5 93.84 48.5 13.71 0 33.74-39.01 70.65-78.03 31.63-32.69 47.45-52.72 47.45-52.72s-51.67-72.76-76.97-73.81z" fill="#00dfe7"/><path d="m4033.17 850.41c-23.2 3.16-46.39 18.98-51.67 10.54-6.33-8.44 14.76-87.52 51.67-111.77v101.22z" fill="#00dfe7"/><path d="m3803.3 1266.9s-3.16 49.56-3.16 66.43c-1.05 16.87 27.41 305.78 27.41 305.78l-99.12 42.18s-11.6-111.77-15.82-172.93c-4.22-62.21 1.05-138.13 8.44-190.85 7.38-52.72 10.54-72.76 10.54-72.76 26.36 10.54 50.61 16.87 71.7 22.14z" fill="#f28f8f"/><path d="m3735.82 1822.59v21.09c0 16.87 10.54 66.43 16.87 82.24 6.33 15.82 21.09 49.56 28.47 53.78 8.44 4.22 14.76 5.27 24.25 4.22 15.82-1.05 32.69 6.33 47.45 0 6.33-3.16 11.6-6.33 17.93-8.44 9.49-2.11 20.03 1.05 28.47-4.22 5.27-3.16 8.44-8.44 13.71-11.6 7.38-4.22 17.93-3.16 25.31-6.33 6.33-3.16 11.6-9.49 13.71-15.82 4.22-13.71 0-29.52-3.16-43.23 0 0 6.33-7.38 7.38-23.2 0-15.82-3.16-43.23-6.33-53.78-3.16-10.54-75.92-51.67-75.92-51.67l-14.76-9.49s-46.39-12.65-88.57 14.76c-42.18 25.31-34.8 51.67-34.8 51.67z" fill="#ffa8a7"/><path d="m3754.8 1820.48c-18.98 31.63-7.38 88.57-7.38 89.63-6.33-22.14-11.6-52.72-11.6-66.43 0-16.87 0-21.09 0-21.09s-6.33-26.36 34.8-52.72c42.18-26.36 88.57-14.76 88.57-14.76s-84.35 32.69-104.39 65.37z" fill="#f28f8f"/><path d="m3947.76 1893.23c-5.27-20.03-23.2-49.56-30.58-56.94-8.44-7.38-14.76-16.87-6.33-13.71 8.44 3.16 18.98 5.27 23.2-1.05 4.22-5.27 5.27 4.22 0 11.6s-1.05 13.71 5.27 25.31c6.33 13.71 7.38 27.41 8.44 34.8z" fill="#f28f8f"/><path d="m4481.3 936.87c30.58 10.54 33.74 92.79 27.41 166.6s-64.32 248.84-90.68 308.95c-29.52 68.54-47.45 107.55-66.43 128.64-20.03 21.09-60.1 39.01-112.82 66.43-47.45 24.25-80.14 36.9-161.33 62.21-91.73 28.47-126.53 30.58-145.51 43.23-20.03 13.71-25.31 43.23-44.29 53.78l-14.76-9.49c-25.31 5.27-66.43 21.09-90.68 37.96-23.2 15.82-32.69 29.52-32.69 29.52v21.09s-23.2 9.49-43.23-31.63-28.47-103.33-6.33-130.75c22.14-27.41 93.84-64.32 151.84-82.24 57.99-18.98 86.46-36.9 155-78.03 71.7-43.23 122.31-72.76 158.16-91.73 13.71-7.38 23.2-17.93 28.47-42.18 5.27-20.03 18.98-78.03 28.47-122.31 14.76-72.76 46.39-295.24 259.39-330.03z" fill="#ffa8a7"/><path d="m4495 929.49s13.71 2.11 15.82 61.16c2.11 57.99 0 120.2-8.44 165.54-7.38 45.34-52.72 177.14-52.72 177.14s-129.69 42.18-261.5-8.44c5.27-31.63 12.65-75.92 22.14-130.75 1.05-7.38 3.16-14.76 4.22-23.2 9.49-52.72 13.71-79.08 16.87-88.57 12.65-39.01 59.05-108.61 263.61-152.89z" fill="#00dfe7"/><path d="m4194.49 1285.88c7.38-45.34 15.82-90.68 23.2-136.02 0-2.11 2.11-4.22 4.22-5.27s5.27-2.11 7.38-3.16c1.05 0 2.11-1.05 3.16 0 56.94 5.27 107.55 10.54 147.62 14.76 59.05 5.27 95.95 9.49 101.22 10.54 2.11 0 5.27 1.05 8.44 3.16 5.27 3.16 7.38 7.38 9.49 9.49-6.33 24.25-13.71 48.5-21.09 74.86-7.38 25.31-15.82 49.56-23.2 73.81l-260.44-42.18z" fill="#000c29"/><path d="m4403.27 1318.57s47.45-128.64 10.54-156.05c-5.27-4.22-9.49-4.22-23.2-5.27-53.78-4.22-159.22-15.82-159.22-15.82-2.11 0-4.22 1.05-7.38 2.11-3.16 1.05-4.22 3.16-6.33 4.22-7.38 46.39-15.82 91.73-23.2 138.13 69.59 10.54 139.18 22.14 208.78 32.69z" fill="#000c29"/></g><path d="m4361.09 1221.56 5.28-27.41-14.77-22.14-50.61-9.49-23.2 14.76-14.76 81.19 14.76 23.2 51.67 10.54 22.14-16.87 4.22-26.36-31.63-6.33-3.17 14.76-4.21 3.17-15.82-3.17-3.16-4.21 10.54-56.94 4.22-3.17 17.92 3.17 1.06 4.22-2.11 14.76z" fill="none"/><path d="m4305.21 1259.52c-2.11 7.38-3.16 15.82-5.27 23.2l12.65 3.16 5.27-22.14c10.54 2.11 20.03 4.22 30.58 6.33 1.05-4.22 2.11-8.44 3.16-12.65-9.49-2.11-17.93-4.22-27.41-6.33-1.05 3.16-1.05 6.33-2.11 9.49-1.05 1.05-2.11 1.05-3.16 2.11-1.05 0-2.11 0-2.11-1.05-4.22-1.05-7.38-1.05-11.6-2.11z" fill="none"/><path d="m4361.09 1214.18c-9.49-6.33-18.98-12.65-28.47-18.98h-1.05c-1.05-1.05-1.05-3.16-2.11-4.22-5.27-1.05-11.6-2.11-16.87-3.16-1.05 1.05-3.16 2.11-4.22 3.16 0 2.11-1.05 5.27-1.05 7.38-10.54-2.11-22.14-4.22-32.69-5.27 1.05-5.27 2.11-10.54 3.16-16.87 7.38-4.22 14.76-9.49 23.2-13.71 16.87 3.16 32.69 6.33 49.56 9.49 5.27 7.38 10.54 13.71 14.76 21.09-1.05 7.38-2.11 13.71-4.22 21.09z" fill="none"/><path d="m4145.5 1022.71.16-.92c.53.43.66 1.32.77 1.99.84 1.33 1.75 3.77 3.43 4.05.21-1.09-.66-2.11-.45-3.78 1.81.88 4.37 7.89 4.85 10.95.57 3.66.25 7.44-1.17 11.03-.45 1.13-1.05 2.06-1.38 2.96-.53.47-.79.91-.94 1.58.22-.07.35-.07.64-.23.62-.33.39-.22.68-.63 1.85-.85 4.71-3.91 6.14-5.86 2.97-4.07 4.39-8.69 5.38-13.76 1.43-7.29 4.06-5.83.61-8.41-5.01-3.75-2.51-2.04-5.61-6.42-.91-1.28-1.74-2.24-2.77-3.23-3.3-3.17-10.28-7.12-15.38-5-.73.31-1.22.8-2.18.44-.66-.24-7.39-5.79-7.61-4.12-.07.51-.24.58.49 1.27 2.53 2.42 11.11 9.27 12.77 11.78 1.36 2.06-1.45 5.04.88 6.78.17.36-.07.24.26.49.53.4.18.16.65.18.05-.71.09-.59-.22-1.14z" fill="#00dfe7"/><path d="m4134.51 1043.88c.05 3.16.47 3.53-1.96 5.04l.2 1.35-1.37-.06c-.82 2.02-2.75 2.15-3.41 3.43.92 1.07 3.88 1.37 5.45 1.38 2.16.02 3.09-.62 4.87-1.14 4.44-1.31 9.42.33 12.83-5.97 2.56-4.74 2.89-11.58 1.12-16.45-.66 3.7-.21 5.19-1.94 8.83-1.13 2.38-2.79 4.75-4.37 6.33-1.36 1.36-5.1 3.99-6.64 2.96-.55-.37-2.31-4.92-4.78-5.7z" fill="#000c29"/><path d="m4128.87 1018.1 6.51 2-1.5 5.3c1.08.39 4.87 1.6 5.73 1.59.38-1.08 1.64-4.75 1.47-5.63l-5.52-1.66 1.78-6.19c-1.21-.43-5.47-1.82-6.54-1.77l-1.95 6.34z" fill="#000c29"/><path d="m4140.45 1030.11 3.72 1.13c.17-.72.33-1.3.53-1.94.23-.71.49-1.23.27-1.83l-3.48-1.02z" fill="#000c29"/><path d="m4144.25 1033.5 2 .55.49-1.84c-.57-.36-1.22-.59-1.98-.56z" fill="#000c29"/><path d="m4074.42 1083.73c.12-1.96.53-8.21 1.59-9.27 1.5-1.51 5.69-1.47 6.91.74 1.12 2.04.28 6.32-.99 8.09-1.52 2.11-5.34 1.81-7.51.44zm35.35-10.63c-1.71-.1-2.59-.06-2.82 1.88-.24 1.97.43 2.19 2.26 2.52.07 2.04-.64 6.12-.9 8.35-.48 4.14-1.39 6.11 1.63 6.45 3.03.34 2.58-1.66 3.07-5.9.28-2.38.49-6.14 1.04-8.33 2.72.19 5.31 1.46 5.63-1.6.32-3.04-2.5-2.29-5.16-2.82.44-5.84 3.92-2.17 4.83-1.88.94.3 4.44-2.25.64-4.58-2-1.23-5.33-1.38-7.14-.28-2.01 1.22-2.58 3.11-3.08 6.2zm-20.79 5.35c-.53 4.49-1.62 8.83 2.09 11.46 1.15.82 2.84 1.23 4.52 1.22 2.14-.01 2.51-.54 4.09-.98l.19.24c.4.5.35.56.9.77 3.25 1.25 3.3-1.25 3.46-2.61l1.36-11.74c.29-2.52.85-4.17-2.06-4.41-2.75-.22-2.44 2.07-2.71 4.45-.24 2.11-.46 7.5-1.67 8.87-1.48 1.67-6.18 1.97-6.05-1.64l1.15-9.98c.22-1.97.01-2.78-2.08-3.02-1.87-.21-2.38.46-2.62 2.27-.22 1.69-.38 3.41-.58 5.1zm58.32 3.18c7.42-1.56 6.71 10.4 1.87 11.18-3.45.55-5.56-1.4-5.63-4.46-.08-3.35.81-6.11 3.76-6.73zm-8.47 6.59c.24 5.43 3.78 9.41 10.32 9.04 5.2-.3 8.47-4.79 8.35-10.88-.11-5.64-3.71-9.53-10.27-9.24-5.14.23-8.67 4.96-8.4 11.08zm-13.82-5.83c.36-4.84 9.15-4.35 8.47 1.01zm-.48 4.03c3.43.17 7.29.85 10.75 1.22 2.22.24 2.57-.64 2.66-2.87.45-11.16-10.78-11.36-14.7-7.88-5 4.43-5.94 19.19 8.18 18.18 6.56-.46 4.08-4.53 3.57-4.9-1.87-.44-3.22 1.36-6.8.54-2.06-.47-3.98-1.98-3.65-4.3zm-55.03-.91c2.76 2.52 6.4 4.05 10.46 3.6 9.59-1.08 11.48-17.7 2.09-19.62-2.96-.61-3.61-.05-6 .17.22-3.79 1.56-7-.69-7.65-3.98-1.15-3.47 2.36-3.83 5.51-.37 3.14-2.02 15.97-2.03 18z" fill="#00dfe7"/><path d="m4208.29 1102.63.53-4.48c-8.05-.16-10.13.75-9.04-8.41 1.15-9.68 2.55-7.92 10.76-6.4l.63-4.44c-3.61-.9-8.36-3.13-11.88-.89-3.22 2.05-3.99 6.76-4.47 10.75-.56 4.61-.73 8.92 1.63 11.69 2.04 2.38 8.51 3.11 11.84 2.17z" fill="#000c29"/><path d="m4160.67 1077.44 5.72.66-2.22 19.87 4.64.55c.55-1.11 2.17-17.18 2.46-19.83l5.69.64.54-4.87-16.29-1.88z" fill="#000c29"/><path d="m4193.98 1076.4-14.24-1.67-2.86 24.72 14.41 1.64.54-4.76-9.51-1.11.6-5.27 7.65.81.54-4.64-7.63-.89.59-5.02c1.87.16 8.28 1.19 9.56.96l.58-4.2c-.03-.58.08-.26-.23-.58z" fill="#000c29"/><path d="m4159.81 1112.34c1.04.12 2.02-.24 2.67-.96l-.65-.64c-.47.54-1.17.79-1.92.7-1.23-.14-2.11-1.29-1.96-2.54s1.26-2.12 2.49-1.98c.68.08 1.25.46 1.6 1.01l.75-.51c-.5-.75-1.3-1.29-2.25-1.4-1.73-.2-3.29 1.01-3.49 2.77-.2 1.75 1.03 3.34 2.76 3.54zm6.82.79c1.73.2 3.29-1.04 3.49-2.8.21-1.78-1.06-3.3-2.76-3.5-1.73-.2-3.3 1.01-3.5 2.77-.2 1.75 1.03 3.33 2.77 3.53zm.1-.89c-1.23-.14-2.11-1.29-1.97-2.54.14-1.26 1.26-2.13 2.49-1.99 1.22.14 2.12 1.25 1.96 2.51-.15 1.26-1.26 2.16-2.49 2.02zm11.14-4.18c-.15-.02-.29.04-.38.13l-2.51 2.82-1.79-3.32c-.08-.12-.19-.2-.34-.21-.26-.03-.49.15-.52.41l-.67 5.74.91.11.52-4.48 1.72 3.25 2.42-2.76-.52 4.48.91.11.67-5.74c.03-.26-.15-.49-.41-.52zm5.8.77-2.22-.26c-.26-.03-.51.16-.54.42l-.66 5.62.91.11.21-1.83 1.8.21c1.18.14 2.24-.67 2.38-1.86.14-1.18-.7-2.27-1.89-2.41zm-.39 3.37-1.8-.21.29-2.46 1.8.21c.67.08 1.16.71 1.08 1.4-.08.68-.69 1.14-1.37 1.06zm8.69 3.78-1.81-6.19c-.06-.19-.2-.32-.39-.34s-.38.06-.47.24l-3.21 5.61 1.02.12 2.46-4.29 1.39 4.74 1.01.12zm6.87-5.39-.53 4.54-2.99-4.88c-.08-.13-.2-.21-.35-.23-.26-.03-.5.16-.53.42l-.67 5.74.91.1.52-4.51 3 4.83c.07.12.19.21.35.22.26.03.49-.16.52-.42l.66-5.71-.91-.11zm4.41 6.7.91.11.23-1.95 2.96-3.87-1.07-.12-2.22 2.93-1.49-3.37-1.07-.13 1.99 4.45-.23 1.95z" fill="#000c29" fill-rule="nonzero"/></svg>