<svg xmlns="http://www.w3.org/2000/svg" width="589.931" height="589.931" viewBox="0 0 280.52 280.52" shape-rendering="geometricPrecision" text-rendering="geometricPrecision" image-rendering="optimizeQuality" fill-rule="evenodd" clip-rule="evenodd">
  <circle cx="140.26" cy="140.26" r="140.26" fill="#2c3437"/>
  <path d="M150.31 164.83l-1.5 87.86c1.26-.24 14.34-5.39 16.84-6.32l34.02-12.89c5.61-2.15 11.4-4.16 17.02-6.45l1.28-16.09c-1.58-.71-3.68-.48-7.63-2.66-1.11-.61-2.21-1.34-3.07-2.05-1.78-1.46-2.35-2.16-3.75-3.93-5.83-7.37-4.89-19.3 2.39-25.86 2.68-2.41 3.91-3.27 7.91-4.89 2.13-.86 5.33-2.43 7.47-3.02l2.16-26.84c-35.05 11.07-68.73 20.16-73.13 23.13zm-14.99 57.63l.52 30.96 8.96.07 1.49-88.77-11.93.01.81 47.53.15 10.2zm101.69-54.68c-.79-1.24-1.55-1.66-2.51-2.75l-5.22-5.63c-.7-.66-.92-.79-1.4-1.35-.63-.72-.8-1.12-1.44-1.31l-1.09 17.36c-3.47 2.76-17 3.48-18.37 15.06-1.16 9.78 8.5 17.12 18.03 14.67 2.15-.55 15.92-6.25 17.63-7.4 1.84-1.23 3-2.41 4.18-4.3 2.3-3.68 2.69-9.51.15-13.17-.94-1.35-7.13-8.46-7.97-9.02-.07-.25-.05-.35-.27-.68-.25-.39-.19-.25-.49-.49-.55-.42-.7-.62-1.23-1zm-181.82 6.51l-1.1-17.56c-.55.18-.07-.1-.65.47l-6.63 6.95c-.43.51-.72.91-1.21 1.37l-9.58 10.51c-1.89 2.57-3.79 3.38-4.16 8.29-.23 3.07.68 5.85 2.06 8.04 2.82 4.44 6.64 5.43 12.33 7.78 4.63 1.92 9.9 4.92 15.64 3.93 13.65-2.35 14.55-18.16 6.95-23.56-2.24-1.59-3.66-2.24-6.63-3.43-1.06-.42-6.47-2.81-7.01-2.8zm55.86-108.64c.56-1.37.86-2.9 1.44-4.29 2.38-5.75 6.04-6.22 10.88-6.61 7.08-.56 13.5-1.54 20.24-3.03 4.73-1.04 14.5-5.13 19.22-3.04 4.99 2.21 5.55 10.42 6.39 16.89l.38-.91c.63-2.09 1.46-3.98 4.16-4.67 0-12.32-3.16-23.8-13.58-26.22-3.44-.8-3.75-2.21-9.11-4.28-9.61-3.72-20.31-3.16-29.49 1.35-1.75.86-5.28 3.22-6.57 4.48-4.48 4.42-7.31 9.66-7.97 16.69-.14 1.46-.17 7.17.42 8.28.27.51 1.26.92 2.21 2.31.7 1.01.85 1.9 1.37 3.05zm-37.51 72.58c.71.54 13.96 4.83 15.95 5.48 13.51 4.44 27.11 9.27 40.52 13.67 2.62.86 7.29.54 10.28.54 11.79 0 7.29.71 18.4-3.05 5.42-1.83 10.73-3.66 16.14-5.53 1.56-.54 31.62-10.66 32.2-11.1-2.13-2.08-24.71-9.9-29.08-11.25-6.43-1.99-10.38-2.54-17.57-2.84-6.64-.27-13.43-.14-20.09-.14-24.5 0-29.56-.9-52.6 8.12-2.31.9-13.1 5.07-14.15 6.1zm36.18-46.63c1.69 3.48 2.27 7.71 5.92 14.32 2.58 4.68 5.06 8.23 9.85 10.46 10.12 4.71 23.52 4.39 32.32-1.62 5.39-3.68 9.44-11.94 11.75-18.6.39-1.13.84-2.9 1.24-3.87.58-1.4 1.64.19 3.16-1.96 6.26-8.83 5.33-28.76.43-26.79-1.99.8-1.21 4.9-2.76 7.31-.58.9-1.98 1.77-3.48 1.08-3.01-1.39-2.6-10.69-4.25-16.03-.96-3.1-2.23-4.49-6.03-4.1-3.42.35-11.54 3.05-16.2 4.07-5.58 1.22-11.9 1.99-17.83 2.49-3.98.33-5.32.16-7.18 2.86-1.41 2.05-2.03 4.96-2.48 7.77-.78 4.89-4.26 4.06-5.23 2.84-1.54-1.94-.67-5.33-2.61-7.64-2.12-2.53-3.37 2.43-3.77 4.62-1.12 6.05.1 15.98 3.72 21.04.93 1.31 1.05 1.77 3.42 1.77zm20.59 73.23l-36.54-11.62c-6.08-1.88-12.13-3.92-18.28-5.77-4.63-1.4-14.67-4.88-18.39-5.76l2.16 26.87c3.74 1.01 11 4.45 13.97 6.58.93.67 1.84 1.72 2.6 2.52 2.53 2.62 4.41 6.72 4.9 10.65.83 6.59-1.7 11.59-4.71 15.35-1.24 1.55-3.92 3.58-5.67 4.56-3.94 2.22-6.28 2.06-7.7 2.73l1.23 16.09 67.84 25.7c-.44-29.37-.94-58.53-1.43-87.91z" fill="#ffbf15"/>
</svg>
