<?xml version="1.0" encoding="UTF-8"?>
<!DOCTYPE svg PUBLIC "-//W3C//DTD SVG 1.1//EN" "http://www.w3.org/Graphics/SVG/1.1/DTD/svg11.dtd">
<!-- Creator: CorelDRAW 2020 (64-Bit Versión de evaluación) -->
<svg xmlns="http://www.w3.org/2000/svg" xml:space="preserve" width="156.086mm" height="156.086mm" version="1.1" style="shape-rendering:geometricPrecision; text-rendering:geometricPrecision; image-rendering:optimizeQuality; fill-rule:evenodd; clip-rule:evenodd"
viewBox="0 0 252.06 252.06"
 xmlns:xlink="http://www.w3.org/1999/xlink"
 xmlns:xodm="http://www.corel.com/coreldraw/odm/2003">
 <defs>
  <style type="text/css">
   <![CDATA[
    .fil2 {fill:#010101}
    .fil1 {fill:#2C3437}
    .fil0 {fill:#FFBF15}
   ]]>
  </style>
 </defs>
 <g id="Capa_x0020_1">
  <metadata id="CorelCorpID_0Corel-Layer"/>
  <circle class="fil0" cx="126.03" cy="126.03" r="126.03"/>
  <g id="_2345067041888">
   <path class="fil1" d="M92.55 126.35c-0.03,-2.57 0.07,-2.96 2.31,-4.68 13.53,-3.81 28.66,-4.09 42.54,-1.42 4.08,0.78 10.21,1.09 9.11,6.26 -1.12,5.24 -7.13,2.49 -11.22,1.72 -9.59,-1.8 -19.67,-2.04 -29.36,-0.55 -4.86,0.75 -10.64,3.86 -13.38,-1.34zm90.42 6.92l-0.23 -1.38 0.11 -2.29 0.13 -1.08 0.66 -0.83c0.21,-0.3 0.24,-0.43 0.57,-0.81l1.75 -1.45 1.5 -0.46c1.6,-0.11 3.14,0.13 4.26,0.77 1.51,0.87 1.63,1.94 2.62,2.77l0.12 1.03 0.06 2.59c-0.61,2.29 -2.32,4.25 -4.81,4.64 -1.49,0.23 -2.74,-0.01 -3.92,-0.64 -1.5,-0.81 -1.51,-1.49 -2.41,-2.15l-0.4 -0.73zm-136.86 39.45c0.17,0.44 0.24,0.68 0.46,1.08 0.09,0.16 0.19,0.36 0.32,0.52 0.33,0.38 0.15,0.16 0.54,0.44 0.06,0.84 0.65,1.77 1.2,2.31 0.32,0.66 0.19,0.46 0.6,1.06 0.03,0.05 0.33,0.45 0.35,0.46 0.23,0.27 0.25,0.26 0.39,0.37 0.74,1.88 5.47,7.13 6.8,8.58 6.97,7.62 8.38,7.47 11.08,19.49 0.96,4.28 1.3,9.01 5.71,9.65 2.67,0.39 17.96,0.1 22.72,0.07 9.45,-0.04 2.79,-12.1 11.67,-11.5 5.15,0.35 9.44,0.8 14.75,0.64 2.39,-0.07 12.81,-1.21 13.98,-0.85 3.98,1.21 1.52,7.55 4.98,10.3 2.56,2.04 9.97,1.48 13.87,1.5 3.32,0.01 11.96,0.25 14.35,-1.04 5.82,-3.13 -0.72,-13.26 9.95,-20.65 4.76,-3.3 17.38,-9.54 19.35,-11.42 0.92,-0.47 1.68,-1.11 2.53,-1.75l3.17 -2.9 1.7 -1.78c0.03,-0.04 0.09,-0.12 0.14,-0.18 1.28,-0.23 0.24,0.07 1.02,-0.51 0.3,-0.22 0.58,-0.45 0.96,-0.71 8.44,-5.67 14.21,-3.85 17.81,-6.96 4.7,-4.06 4.13,-16.88 2.84,-23.75 -1.74,-9.29 -7.52,-5.42 -17.37,-10.73 -7.34,-3.96 -11.52,-12.05 -18.25,-17.1 -4.13,-3.1 -7.41,-3.08 -2.02,-13.55 3.63,-7.06 11.96,-15.19 -0.56,-15.63 -12.19,-0.43 -24.37,1.79 -34.57,7.77 -3.65,2.14 -6.15,2.71 -11.04,3.15 -1.63,3.52 -6.56,7.79 -9.67,9.81 -12.46,8.1 -29.05,5.55 -39.23,-5.76 -0.88,-0.98 -1.46,-1.94 -2.32,-2.8 -2.71,0.18 -6.85,1.34 -9.56,1.97 -9.77,2.29 -16.19,4.72 -24.15,10.62 -4.3,3.19 -8.47,7.21 -11.13,11.96 -2.73,4.86 -5.62,9.91 -7.21,15.88 -10.32,2.6 -17.76,-9.28 -12.48,-14.71 5.25,-5.4 8.62,0.41 11.78,-0.75 2.01,-0.74 2.6,-3.55 1,-5.08 -1.1,-1.05 -3.78,-2.08 -5.61,-2.4 -9.2,-1.6 -16.88,6.75 -14.81,15.9 1.89,8.36 9.75,13.73 18.64,13.38 0.09,5.6 -0.42,9.17 0.93,14.61 0.6,2.4 3.08,9.68 4.4,11z"/>
   <path class="fil2" d="M131.83 94.55c-0.21,0.61 -0.89,1.18 -1.78,0.92 -0.65,-0.19 -1.24,-0.97 -0.93,-1.84 0.65,-1.8 3.31,-0.84 2.71,0.93zm-15.54 -9.27c0.07,0.12 0.05,0.09 0.16,0.21 0.08,0.08 0.1,0.09 0.18,0.16 0.17,0.13 0.25,0.24 0.42,0.34 0.04,0.14 0.15,0.31 0.31,0.38 0.06,0.2 -0,0.11 0.14,0.16 0.02,0.14 0,0.15 0.15,0.24 0.06,0.21 -0.03,0.09 0.14,0.21 0.02,0.17 0.01,0.09 0.11,0.27l0.41 0.91c0.52,1.49 0.42,3.12 -0.2,4.49 -1.64,3.58 -6.05,4.76 -9.32,2.28 -0.6,-0.45 -1.19,-1.12 -1.62,-1.93 -0.33,-0.63 -0.8,-1.98 -0.68,-2.84l2.83 -0c0.13,0.9 0.29,1.73 1.07,2.38 2.68,2.24 6.2,-0.34 5.26,-3.36 -0.81,-2.62 -3.43,-2.12 -4.52,-2.42 -4.11,-1.12 -5.65,-5.45 -4.01,-8.66 1.74,-3.4 5.98,-4.48 9.28,-2 0.93,0.7 2.46,2.79 2.25,4.74l-2.84 -0c-0.13,-1.1 -0.28,-1.5 -0.84,-2.16 -1.5,-1.79 -4.94,-1.31 -5.56,1.49 -0.41,1.87 0.82,3.33 2.2,3.76 0.77,0.24 1.74,0.12 2.66,0.38 0.38,0.11 0.72,0.24 1.07,0.42 0.28,0.14 0.78,0.53 0.97,0.56zm9.41 0.77l0.08 -0.28c0.13,-0.12 0.07,-0.03 0.12,-0.22l4.53 -10.52 2.61 1.09c-0.04,0.25 -7.84,18.42 -8.47,19.85 -0.23,0.52 -1.06,2.56 -1.24,2.84l-2.6 -1.08c0.23,-0.91 4.73,-10.8 4.76,-11.28 0.13,-0.12 0.15,-0.21 0.22,-0.4zm-7.14 -20.96c3.04,-0.2 6.21,0.39 8.73,1.41 2.53,1.03 4.34,2.22 6.26,3.96 3.09,2.8 6.22,7.56 6.58,13.83 0.66,11.71 -8.32,20.95 -19.23,21.61 -11.62,0.7 -21,-8.38 -21.58,-19.26 -0.33,-6.29 2.27,-11.77 5.37,-14.97 0.83,-0.86 1.59,-1.66 2.66,-2.45 3.29,-2.43 6.78,-3.85 11.21,-4.13zm-21.8 19.47l0 2.28 0.07 0.32c0.19,1.77 0.21,2.39 0.72,4.32 1.06,3.99 3.25,7.6 5.93,10.25 3.31,3.28 7.62,5.62 12.46,6.42 0.47,0.08 2.16,0.2 2.4,0.31l2.52 0c0.22,-0.08 1.97,-0.21 2.41,-0.27 0.77,-0.12 1.49,-0.27 2.23,-0.47 8.78,-2.29 15.4,-9.56 16.85,-18.56 0.07,-0.46 0.21,-2.24 0.29,-2.46l0 -2.39c-0.09,-0.23 -0.22,-2.01 -0.3,-2.47 -0.12,-0.76 -0.28,-1.5 -0.47,-2.22 -1.08,-4.05 -3.23,-7.66 -5.98,-10.37 -1.58,-1.55 -3.83,-3.34 -6.4,-4.5 -1.29,-0.58 -2.53,-1.07 -4,-1.45 -0.74,-0.19 -1.5,-0.35 -2.29,-0.47 -0.44,-0.07 -2.2,-0.19 -2.42,-0.27l-2.45 0c-0.29,0.13 -1.95,0.23 -2.46,0.32 -8.9,1.49 -16.23,8.17 -18.43,16.98 -0.19,0.75 -0.34,1.51 -0.46,2.29 -0.07,0.47 -0.17,2.2 -0.26,2.44zm22.05 -18.77c-10.63,0.54 -19.33,9.41 -18.79,20.68 0.5,10.54 9.46,19.25 20.64,18.73 10.56,-0.49 19.29,-9.45 18.76,-20.68 -0.2,-4.25 -1.62,-7.65 -3.91,-10.85 -0.43,-0.6 -1.74,-2.07 -2.33,-2.61 -3.21,-2.92 -8.11,-5.58 -14.36,-5.27z"/>
   <path class="fil2" d="M125.92 51.57c-0.11,0.31 -0.46,0.6 -0.91,0.47 -0.33,-0.1 -0.64,-0.5 -0.48,-0.94 0.33,-0.92 1.69,-0.43 1.39,0.47zm-7.96 -4.75c0.04,0.06 0.02,0.05 0.08,0.11 0.04,0.04 0.05,0.05 0.09,0.08 0.08,0.07 0.13,0.12 0.22,0.17 0.02,0.07 0.08,0.16 0.16,0.2 0.03,0.1 -0,0.05 0.07,0.08 0.01,0.07 0,0.08 0.08,0.12 0.03,0.11 -0.02,0.05 0.07,0.1 0.01,0.09 0,0.05 0.05,0.14l0.21 0.47c0.27,0.76 0.22,1.6 -0.1,2.3 -0.84,1.83 -3.1,2.44 -4.78,1.17 -0.31,-0.23 -0.61,-0.57 -0.83,-0.99 -0.17,-0.32 -0.41,-1.02 -0.35,-1.45l1.45 -0c0.07,0.46 0.15,0.89 0.55,1.22 1.37,1.15 3.17,-0.18 2.69,-1.72 -0.42,-1.34 -1.76,-1.09 -2.32,-1.24 -2.1,-0.57 -2.89,-2.79 -2.05,-4.44 0.89,-1.74 3.06,-2.29 4.75,-1.03 0.47,0.36 1.26,1.43 1.15,2.43l-1.45 -0c-0.07,-0.56 -0.14,-0.77 -0.43,-1.11 -0.77,-0.92 -2.53,-0.67 -2.85,0.76 -0.21,0.96 0.42,1.7 1.13,1.93 0.4,0.12 0.89,0.06 1.36,0.2 0.19,0.06 0.37,0.13 0.55,0.22 0.14,0.07 0.4,0.27 0.5,0.29zm4.82 0.39l0.04 -0.14c0.07,-0.06 0.03,-0.02 0.06,-0.12l2.32 -5.39 1.34 0.56c-0.02,0.13 -4.02,9.44 -4.34,10.17 -0.12,0.27 -0.54,1.31 -0.64,1.46l-1.33 -0.55c0.12,-0.47 2.42,-5.53 2.44,-5.78 0.07,-0.06 0.08,-0.11 0.11,-0.21zm-3.66 -10.74c1.56,-0.1 3.18,0.2 4.47,0.72 1.3,0.53 2.22,1.14 3.2,2.03 1.58,1.43 3.19,3.87 3.37,7.09 0.34,6 -4.26,10.73 -9.85,11.07 -5.95,0.36 -10.76,-4.3 -11.05,-9.87 -0.17,-3.22 1.17,-6.03 2.75,-7.67 0.42,-0.44 0.82,-0.85 1.36,-1.25 1.69,-1.25 3.47,-1.97 5.74,-2.12zm-11.17 9.98l0 1.17 0.04 0.16c0.1,0.9 0.11,1.23 0.37,2.21 0.54,2.04 1.67,3.89 3.04,5.25 1.69,1.68 3.9,2.88 6.38,3.29 0.24,0.04 1.1,0.1 1.23,0.16l1.29 0c0.11,-0.04 1.01,-0.11 1.24,-0.14 0.39,-0.06 0.76,-0.14 1.14,-0.24 4.5,-1.17 7.89,-4.9 8.63,-9.51 0.04,-0.23 0.11,-1.15 0.15,-1.26l0 -1.23c-0.05,-0.12 -0.11,-1.03 -0.15,-1.26 -0.06,-0.39 -0.14,-0.77 -0.24,-1.14 -0.55,-2.07 -1.66,-3.93 -3.06,-5.31 -0.81,-0.79 -1.96,-1.71 -3.28,-2.31 -0.66,-0.3 -1.3,-0.55 -2.05,-0.74 -0.38,-0.1 -0.77,-0.18 -1.17,-0.24 -0.23,-0.04 -1.13,-0.1 -1.24,-0.14l-1.26 0c-0.15,0.07 -1,0.12 -1.26,0.16 -4.56,0.77 -8.31,4.19 -9.44,8.7 -0.1,0.38 -0.18,0.78 -0.23,1.17 -0.04,0.24 -0.09,1.13 -0.13,1.25zm11.3 -9.62c-5.45,0.27 -9.9,4.82 -9.63,10.59 0.26,5.4 4.85,9.86 10.57,9.59 5.41,-0.25 9.88,-4.84 9.61,-10.6 -0.1,-2.18 -0.83,-3.92 -2,-5.56 -0.22,-0.31 -0.89,-1.06 -1.19,-1.34 -1.64,-1.49 -4.15,-2.86 -7.36,-2.7z"/>
   <g>
    <path class="fil2" d="M93.55 68.94c-0.11,0.31 -0.46,0.6 -0.91,0.47 -0.33,-0.1 -0.64,-0.5 -0.48,-0.94 0.33,-0.92 1.69,-0.43 1.39,0.47zm-7.96 -4.75c0.04,0.06 0.02,0.05 0.08,0.11 0.04,0.04 0.05,0.05 0.09,0.08 0.08,0.07 0.13,0.12 0.22,0.17 0.02,0.07 0.08,0.16 0.16,0.2 0.03,0.1 -0,0.05 0.07,0.08 0.01,0.07 0,0.08 0.08,0.12 0.03,0.11 -0.02,0.05 0.07,0.1 0.01,0.09 0,0.05 0.05,0.14l0.21 0.47c0.27,0.76 0.22,1.6 -0.1,2.3 -0.84,1.83 -3.1,2.44 -4.78,1.17 -0.31,-0.23 -0.61,-0.57 -0.83,-0.99 -0.17,-0.32 -0.41,-1.02 -0.35,-1.45l1.45 -0c0.07,0.46 0.15,0.89 0.55,1.22 1.37,1.15 3.17,-0.18 2.69,-1.72 -0.42,-1.34 -1.76,-1.09 -2.32,-1.24 -2.1,-0.57 -2.89,-2.79 -2.05,-4.44 0.89,-1.74 3.06,-2.29 4.75,-1.03 0.47,0.36 1.26,1.43 1.15,2.43l-1.45 -0c-0.07,-0.56 -0.14,-0.77 -0.43,-1.11 -0.77,-0.92 -2.53,-0.67 -2.85,0.76 -0.21,0.96 0.42,1.7 1.13,1.93 0.4,0.12 0.89,0.06 1.36,0.2 0.19,0.06 0.37,0.13 0.55,0.22 0.14,0.07 0.4,0.27 0.5,0.29zm4.82 0.39l0.04 -0.14c0.07,-0.06 0.03,-0.02 0.06,-0.12l2.32 -5.39 1.34 0.56c-0.02,0.13 -4.02,9.44 -4.34,10.17 -0.12,0.27 -0.54,1.31 -0.64,1.46l-1.33 -0.55c0.12,-0.47 2.42,-5.53 2.44,-5.78 0.07,-0.06 0.08,-0.11 0.11,-0.21zm-3.66 -10.74c1.56,-0.1 3.18,0.2 4.47,0.72 1.3,0.53 2.22,1.14 3.2,2.03 1.58,1.43 3.19,3.87 3.37,7.09 0.34,6 -4.26,10.73 -9.85,11.07 -5.95,0.36 -10.76,-4.3 -11.05,-9.87 -0.17,-3.22 1.17,-6.03 2.75,-7.67 0.42,-0.44 0.82,-0.85 1.36,-1.25 1.69,-1.25 3.47,-1.97 5.74,-2.12zm-11.17 9.98l0 1.17 0.04 0.16c0.1,0.9 0.11,1.23 0.37,2.21 0.54,2.04 1.67,3.89 3.04,5.25 1.69,1.68 3.9,2.88 6.38,3.29 0.24,0.04 1.1,0.1 1.23,0.16l1.29 0c0.11,-0.04 1.01,-0.11 1.24,-0.14 0.39,-0.06 0.76,-0.14 1.14,-0.24 4.5,-1.17 7.89,-4.9 8.63,-9.51 0.04,-0.23 0.11,-1.15 0.15,-1.26l0 -1.23c-0.05,-0.12 -0.11,-1.03 -0.15,-1.26 -0.06,-0.39 -0.14,-0.77 -0.24,-1.14 -0.55,-2.07 -1.66,-3.93 -3.06,-5.31 -0.81,-0.79 -1.96,-1.71 -3.28,-2.31 -0.66,-0.3 -1.3,-0.55 -2.05,-0.74 -0.38,-0.1 -0.77,-0.18 -1.17,-0.24 -0.23,-0.04 -1.13,-0.1 -1.24,-0.14l-1.26 0c-0.15,0.07 -1,0.12 -1.26,0.16 -4.56,0.77 -8.31,4.19 -9.44,8.7 -0.1,0.38 -0.18,0.78 -0.23,1.17 -0.04,0.24 -0.09,1.13 -0.13,1.25zm11.3 -9.62c-5.45,0.27 -9.9,4.82 -9.63,10.59 0.26,5.4 4.85,9.86 10.57,9.59 5.41,-0.25 9.88,-4.84 9.61,-10.6 -0.1,-2.18 -0.83,-3.92 -2,-5.56 -0.22,-0.31 -0.89,-1.06 -1.19,-1.34 -1.64,-1.49 -4.15,-2.86 -7.36,-2.7z"/>
    <path class="fil2" d="M158.28 68.94c-0.11,0.31 -0.46,0.6 -0.91,0.47 -0.33,-0.1 -0.64,-0.5 -0.48,-0.94 0.33,-0.92 1.69,-0.43 1.39,0.47zm-7.96 -4.75c0.04,0.06 0.02,0.05 0.08,0.11 0.04,0.04 0.05,0.05 0.09,0.08 0.08,0.07 0.13,0.12 0.22,0.17 0.02,0.07 0.08,0.16 0.16,0.2 0.03,0.1 -0,0.05 0.07,0.08 0.01,0.07 0,0.08 0.08,0.12 0.03,0.11 -0.02,0.05 0.07,0.1 0.01,0.09 0,0.05 0.06,0.14l0.21 0.47c0.27,0.76 0.22,1.6 -0.1,2.3 -0.84,1.83 -3.1,2.44 -4.78,1.17 -0.31,-0.23 -0.61,-0.57 -0.83,-0.99 -0.17,-0.32 -0.41,-1.02 -0.35,-1.45l1.45 -0c0.07,0.46 0.15,0.89 0.55,1.22 1.37,1.15 3.17,-0.18 2.69,-1.72 -0.42,-1.34 -1.76,-1.09 -2.32,-1.24 -2.1,-0.57 -2.89,-2.79 -2.05,-4.44 0.89,-1.74 3.06,-2.29 4.75,-1.03 0.47,0.36 1.26,1.43 1.15,2.43l-1.45 -0c-0.07,-0.56 -0.14,-0.77 -0.43,-1.11 -0.77,-0.92 -2.53,-0.67 -2.85,0.76 -0.21,0.96 0.42,1.7 1.13,1.93 0.4,0.12 0.89,0.06 1.36,0.2 0.19,0.06 0.37,0.13 0.55,0.22 0.14,0.07 0.4,0.27 0.5,0.29zm4.82 0.39l0.04 -0.14c0.07,-0.06 0.03,-0.02 0.06,-0.12l2.32 -5.39 1.34 0.56c-0.02,0.13 -4.02,9.44 -4.34,10.17 -0.12,0.27 -0.54,1.31 -0.64,1.46l-1.33 -0.55c0.12,-0.47 2.42,-5.53 2.44,-5.78 0.07,-0.06 0.08,-0.11 0.11,-0.21zm-3.66 -10.74c1.56,-0.1 3.18,0.2 4.47,0.72 1.3,0.53 2.22,1.14 3.2,2.03 1.58,1.43 3.19,3.87 3.37,7.09 0.34,6 -4.26,10.73 -9.85,11.07 -5.95,0.36 -10.76,-4.3 -11.05,-9.87 -0.17,-3.22 1.17,-6.03 2.75,-7.67 0.42,-0.44 0.82,-0.85 1.36,-1.25 1.69,-1.25 3.47,-1.97 5.74,-2.12zm-11.17 9.98l0 1.17 0.04 0.16c0.1,0.9 0.11,1.23 0.37,2.21 0.54,2.04 1.67,3.89 3.04,5.25 1.69,1.68 3.9,2.88 6.38,3.29 0.24,0.04 1.1,0.1 1.23,0.16l1.29 0c0.11,-0.04 1.01,-0.11 1.24,-0.14 0.39,-0.06 0.76,-0.14 1.14,-0.24 4.5,-1.17 7.89,-4.9 8.63,-9.51 0.04,-0.23 0.11,-1.15 0.15,-1.26l0 -1.23c-0.05,-0.12 -0.11,-1.03 -0.15,-1.26 -0.06,-0.39 -0.14,-0.77 -0.24,-1.14 -0.55,-2.07 -1.66,-3.93 -3.06,-5.31 -0.81,-0.79 -1.96,-1.71 -3.28,-2.31 -0.66,-0.3 -1.3,-0.55 -2.05,-0.74 -0.38,-0.1 -0.77,-0.18 -1.17,-0.24 -0.23,-0.04 -1.13,-0.1 -1.24,-0.14l-1.26 0c-0.15,0.07 -1,0.12 -1.26,0.16 -4.56,0.77 -8.31,4.19 -9.44,8.7 -0.1,0.38 -0.18,0.78 -0.23,1.17 -0.04,0.24 -0.09,1.13 -0.13,1.25zm11.3 -9.62c-5.45,0.27 -9.9,4.82 -9.63,10.59 0.26,5.4 4.85,9.86 10.57,9.59 5.41,-0.25 9.88,-4.84 9.61,-10.6 -0.1,-2.18 -0.83,-3.92 -2,-5.56 -0.22,-0.31 -0.89,-1.06 -1.19,-1.34 -1.64,-1.49 -4.15,-2.86 -7.36,-2.7z"/>
   </g>
  </g>
 </g>
</svg>
