<svg clip-rule="evenodd" fill-rule="evenodd" height="101.982mm" image-rendering="optimizeQuality" shape-rendering="geometricPrecision" text-rendering="geometricPrecision" viewBox="0 0 581.29 436.65" width="135.761mm" xmlns="http://www.w3.org/2000/svg"><path d="m283.75 74.16.24-3.86c2.38 1.53 3.32 5.11 4.1 7.82 4.11 5.09 9 14.71 16.07 15.05.34-4.61-3.74-8.37-3.65-15.36 7.88 2.74 21.77 30.4 25.21 42.81 4.1 14.81 4.6 30.52.44 46.01-1.31 4.87-3.33 9-4.29 12.88-1.94 2.18-2.82 4.14-3.11 6.95.89-.38 1.39-.46 2.52-1.24 2.38-1.65 1.48-1.11 2.52-2.91 7.21-4.37 17.53-18.36 22.48-27.09 10.3-18.18 13.92-37.92 15.6-59.28 2.42-30.71 13.93-25.97-1.53-34.93-22.45-13.03-11.3-7.18-26.18-23.76-4.35-4.85-8.25-8.42-12.96-12.01-15.09-11.49-45.75-24.43-65.76-13.24-2.87 1.61-4.65 3.86-8.77 2.84-2.81-.69-33.23-20.33-33.34-13.34-.03 2.13-.7 2.48 2.62 5 11.57 8.78 50.23 32.86 58.28 42.42 6.61 7.85-3.54 21.47 6.87 27.54.88 1.42-.15 1.01 1.32 1.88 2.38 1.41.83.55 2.77.43-.14-2.96.09-2.48-1.44-4.61z" fill="#00dfe7"/><g fill="#000c29"><path d="m248.57 166.67c1.74 13 3.64 14.3-5.65 21.71l1.46 5.46-5.66.4c-2.43 8.72-10.32 10.17-12.4 15.77 4.33 3.96 16.63 3.76 23.1 3.06 8.89-.97 12.42-4.02 19.51-7.03 17.67-7.5 38.99-3.15 50-30.75 8.28-20.74 6.37-49.1-3.25-68.33-.96 15.56 1.62 21.5-3.77 37.32-3.53 10.35-9.24 20.92-14.97 28.18-4.94 6.26-19.09 18.89-25.95 15.4-2.45-1.25-11.87-19.16-22.43-21.2z"/><path d="m213.02 63.14 27.8 5.14-3.65 22.56c4.63 1.07 20.83 4.28 24.39 3.8 1.07-4.62 4.47-20.35 3.38-23.89l-23.53-4.19 4.39-26.34c-5.19-1.18-23.41-4.86-27.79-4.16l-4.98 27.07z"/><path d="m266.47 107.09 15.86 2.9c.33-3.05.72-5.49 1.26-8.25.59-3.04 1.45-5.29.25-7.67l-14.83-2.55z"/><path d="m283.73 119.2 8.51 1.3 1.16-7.82c-2.51-1.23-5.32-1.86-8.44-1.35z"/></g><path d="m20.06 359.63c-.47-8.13-1.73-34.1 2.11-38.96 5.46-6.92 22.76-8.78 28.83-.27 5.61 7.85 4.18 25.9-.22 33.82-5.24 9.43-21.15 10-30.73 5.41zm140.55-60.73c-7.11.42-10.7.99-10.73 9.1-.03 8.24 2.81 8.82 10.51 9.31 1.28 8.38.3 25.52.3 34.83 0 17.28-2.81 25.83 9.81 25.8 12.67-.03 9.82-8.06 9.82-25.8 0-9.95-.92-25.55.29-34.82 11.3-.52 22.56 3.48 22.44-9.3-.12-12.67-11.41-8.23-22.62-9.14-.97-24.26 15.11-10.81 19.01-10.06 4.01.77 17.22-11.4.45-19.19-8.82-4.1-22.62-3.14-29.57 2.25-7.7 5.97-9.14 14.05-9.72 27.02zm-83.12 31.99c-.03 18.74-2.43 37.14 14.09 46.21 5.13 2.82 12.3 3.69 19.21 2.86 8.8-1.06 10.06-3.43 16.4-5.99l.88.89c1.9 1.88 1.72 2.15 4.07 2.75 14 3.59 13.02-6.72 13.02-12.39v-49.04c-.03-10.52 1.51-17.59-10.6-17.17-11.43.4-9.04 9.71-9.04 19.62 0 8.79 1.7 31.11-2.65 37.34-5.3 7.59-24.51 11.1-25.69-3.87l-.04-41.68c-.02-8.22-1.31-11.45-10.01-11.43-7.81.02-9.6 3.05-9.7 10.59-.09 7.06.06 14.22.05 21.29zm241.84-14.85c29.82-9.97 32.63 39.66 13.08 45.19-13.94 3.94-23.58-3.11-25.34-15.66-1.93-13.79.4-25.56 12.26-29.53zm-31.72 31.19c3.59 22.26 20.07 36.98 46.84 32.31 21.29-3.71 32.59-23.77 29.2-48.84-3.14-23.21-19.83-37.52-46.74-33.14-21.09 3.43-33.36 24.57-29.3 49.67zm-59.72-17.43c-.85-20.11 35.62-22.3 35.4.1zm-.06 16.85c14.21-.95 30.43.03 44.89-.12 9.27-.09 10.27-3.88 9.57-13.09-3.5-46.18-49.85-41.64-64.35-25.43-18.49 20.67-15.31 81.9 42.41 71.02 26.82-5.06 14.65-20.64 12.36-21.91-7.89-.91-12.64 7.17-27.77 5.49-8.73-.96-17.34-6.25-17.11-15.97zm-227.21 22.59c12.57 9.06 28.3 13.63 44.82 9.8 38.98-9.04 38.85-78.42-.78-81.85-12.5-1.08-14.91 1.52-24.62 3.57-.91-15.72 3.08-29.59-6.52-31.18-16.97-2.83-13.16 11.37-13.16 24.54 0 13.11-.65 66.77.26 75.13z" fill="#00dfe7"/><path d="m580.75 373.4.04-18.71c-33.24 3.19-41.38 7.93-41.26-30.33.13-40.44 6.74-33.84 41.28-31.52l.47-18.59c-15.29-1.99-35.93-8.89-49.39 2.03-12.31 9.98-13.2 29.79-13.28 46.44-.09 19.28 1.25 37.11 12.33 47.39 9.52 8.84 36.55 8.75 49.81 3.28z" fill="#000c29"/><path d="m372.46 292.42 23.89-.04.35 82.94 19.38.03c1.75-4.83.73-71.83.63-82.88l23.76-.09-.09-20.31-68.02.05z" fill="#000c29"/><path d="m509.23 272.19-59.46-.06.06 103.21 60.14-.12-.05-19.89-39.74-.04-.05-21.99 31.91-.31.01-19.39-31.86-.01.02-20.95c7.76-.23 34.69.93 39.84-.6l.39-17.56c-.38-2.37.21-1.1-1.22-2.28z" fill="#000c29"/><path d="m385.61 436.65c4.35 0 8.2-1.96 10.55-5.26l-2.96-2.31c-1.69 2.44-4.44 3.82-7.58 3.82-5.13 0-9.3-4.3-9.3-9.51 0-5.24 4.17-9.33 9.3-9.33 2.86 0 5.37 1.3 7.1 3.41l2.86-2.48c-2.41-2.85-5.99-4.68-9.96-4.68-7.23 0-13.08 5.74-13.08 13.08 0 7.3 5.85 13.25 13.08 13.25zm28.48 0c7.24 0 13.06-5.88 13.06-13.23 0-7.42-5.96-13.1-13.06-13.1-7.24 0-13.09 5.74-13.09 13.1 0 7.31 5.85 13.23 13.09 13.23zm0-3.71c-5.14 0-9.31-4.32-9.31-9.52-.04-5.25 4.17-9.39 9.31-9.39 5.1 0 9.31 4.14 9.27 9.39 0 5.25-4.14 9.52-9.27 9.52zm43.91-22.55c-.62 0-1.16.28-1.51.72l-8.99 12.84-8.96-12.84c-.38-.45-.89-.72-1.51-.72-1.1 0-1.96.86-1.96 1.93v23.96h3.78v-18.73l8.65 12.57 8.65-12.53v18.69h3.78v-23.96c0-1.06-.86-1.93-1.93-1.93zm24.27.4h-9.29c-1.1 0-2.03.89-2.03 2v23.49h3.78v-7.64h7.53c4.94 0 8.92-3.85 8.92-8.82 0-4.94-3.98-9.03-8.92-9.03zm0 14.07h-7.53v-10.28h7.53c2.8 0 5.14 2.38 5.14 5.25 0 2.83-2.28 5.04-5.14 5.04zm37.62 11.42-10.44-24.65c-.31-.76-.96-1.21-1.76-1.21-.79 0-1.52.45-1.82 1.21l-10.55 24.65h4.24l8.09-18.86 7.99 18.86h4.24zm25.74-25.49v18.94l-14.64-18.66c-.37-.48-.92-.76-1.54-.76-1.1 0-2 .9-2 2v23.96h3.78v-18.83l14.67 18.44c.34.45.89.76 1.55.76 1.1 0 1.96-.9 1.96-2v-23.85zm21.36 25.49h3.78v-8.13l10.33-17.36h-4.48l-7.74 13.16-7.74-13.16h-4.48l10.33 17.36z" fill="#000c29" fill-rule="nonzero"/></svg>