<svg
    xmlns="http://www.w3.org/2000/svg"
    viewBox="0 0 511 511"
    id="vector">
    <path
        id="path"
        d="M 332.629 434.773 C 332.629 469.82 308.984 499.328 276.789 508.242 C 270.301 510.039 263.469 511 256.414 511 C 214.316 511 180.187 476.875 180.187 434.773 L 256.535 395.539 Z M 332.629 434.773"
        fill="#e58e13"/>
    <path
        id="path_1"
        d="M 328.941 458.285 C 321.093 482.504 301.449 501.418 276.789 508.242 C 261.285 503.953 247.766 494.89 237.914 482.738 C 229.973 472.937 237.137 458.285 249.75 458.285 Z M 328.941 458.285"
        fill="#f7d360"/>
    <path
        id="path_2"
        d="M 453.211 358.559 L 289.449 393.973 L 59.605 358.559 C 77.64 358.559 87.839 349.125 93.628 333.481 C 121.632 257.958 47.046 37.848 256.413 37.848 C 465.78 37.848 391.183 257.957 419.186 333.481 C 424.987 349.126 435.182 358.559 453.209 358.559 Z M 453.211 358.559"
        fill="#f7d360"/>
    <path
        id="path_3"
        d="M 491.316 396.668 C 491.316 417.711 474.253 434.773 453.211 434.773 L 59.606 434.773 C 49.086 434.773 39.555 430.511 32.661 423.613 C 25.763 416.718 21.501 407.187 21.501 396.668 C 21.501 375.621 38.564 358.559 59.606 358.559 L 453.211 358.559 C 463.731 358.559 473.262 362.825 480.156 369.719 C 487.054 376.617 491.316 386.145 491.316 396.668 Z M 491.316 396.668"
        fill="#e58e13"/>
    <path
        id="path_4"
        d="M 419.188 333.48 L 214.614 333.48 C 192.559 333.48 174.923 315.226 175.606 293.179 C 178.489 199.913 163.614 39.62 254.883 37.859 C 4.348 39.156 164.5 358.558 59.613 358.558 L 453.211 358.558 C 435.184 358.558 424.988 349.124 419.188 333.48 Z M 419.188 333.48"
        fill="#e58e13"/>
    <path
        id="path_5"
        d="M 491.316 396.668 C 491.316 417.711 474.253 434.773 453.211 434.773 L 169.731 434.773 C 159.208 434.773 149.676 430.511 142.782 423.613 C 135.887 416.718 131.622 407.187 131.622 396.668 C 131.622 375.621 148.685 358.559 169.731 358.559 L 453.211 358.559 C 463.731 358.559 473.262 362.825 480.156 369.719 C 487.054 376.617 491.316 386.145 491.316 396.668 Z M 491.316 396.668"
        fill="#f7d360"/>
    <path
        id="path_6"
        d="M 295.148 40.766 C 295.23 39.805 295.261 38.832 295.261 37.848 C 295.261 16.399 277.866 -1 256.413 -1 C 234.952 -1 217.565 16.398 217.565 37.848 C 217.565 38.832 217.596 39.805 217.678 40.766"
        fill="#e58e13"/>
    <path
        id="path_7"
        d="M 445.613 166.719 C 441.285 166.719 437.777 163.207 437.777 158.883 C 437.777 122.613 428.453 91.66 410.066 66.883 C 396.339 48.387 382.382 40.426 382.246 40.344 C 378.48 38.231 377.125 33.465 379.226 29.692 C 381.328 25.922 386.07 24.555 389.847 26.641 C 390.515 27.012 406.382 35.918 422.097 56.801 C 436.402 75.809 453.452 108.949 453.452 158.883 C 453.452 163.207 449.94 166.719 445.612 166.719 Z M 445.613 166.719"
        fill="#e6e6e6"/>
    <path
        id="path_8"
        d="M 480.094 121.789 C 475.766 121.789 472.258 118.281 472.258 113.953 C 472.258 63.93 442.633 44.043 441.371 43.223 C 437.758 40.868 436.711 36.028 439.043 32.403 C 441.379 28.778 446.184 27.708 449.82 30.024 C 451.379 31.012 487.929 54.954 487.929 113.954 C 487.929 118.282 484.421 121.79 480.093 121.79 Z M 480.094 121.789"
        fill="#e6e6e6"/>
    <path
        id="path_9"
        d="M 67.203 166.719 C 62.875 166.719 59.367 163.207 59.367 158.883 C 59.367 108.949 76.418 75.809 90.719 56.801 C 106.438 35.918 122.301 27.008 122.969 26.641 C 126.758 24.547 131.528 25.922 133.621 29.711 C 135.711 33.492 134.344 38.25 130.57 40.348 C 130.261 40.524 116.398 48.504 102.754 66.883 C 84.363 91.66 75.043 122.613 75.043 158.883 C 75.039 163.207 71.531 166.719 67.203 166.719 Z M 67.203 166.719"
        fill="#e6e6e6"/>
    <path
        id="path_10"
        d="M 32.723 121.789 C 28.395 121.789 24.887 118.281 24.887 113.953 C 24.887 54.953 61.442 31.012 62.996 30.023 C 66.648 27.699 71.492 28.777 73.816 32.425 C 76.132 36.066 75.07 40.894 71.441 43.222 C 70.14 44.074 40.558 63.968 40.558 113.952 C 40.558 118.28 37.05 121.788 32.722 121.788 Z M 32.723 121.789"
        fill="#e6e6e6"/>
</svg>
