<svg xmlns="http://www.w3.org/2000/svg" width="668.315" height="668.016" viewBox="0 0 351.7 351.54" shape-rendering="geometricPrecision" text-rendering="geometricPrecision" image-rendering="optimizeQuality" fill-rule="evenodd" clip-rule="evenodd">
  <path fill="#4d4d4d" stroke="#373435" stroke-width=".4" stroke-miterlimit="22.926" d="M.2.2h351.3v351.15H.2z"/>
  <path fill="#ffa70a" d="M49.77 41.29h252.15v219.16H49.77z"/>
  <path d="M85.57 251.74h180.56c-.31-3.2-.06.32-.76-2.43-.04-.14-.07-.28-.11-.43-1.44-6.56.5-6.38-.69-11.81-.58-2.63-1.54-3.42-2.49-5.96-2.4-6.39-2.38-20.51-5.95-25.05-7.99-10.15-20.47-8.54-26.77-10.39-8.25-2.42-6.52-1.6-13.22-3.19-1.88-.45-3.42-2.14-5.6-3-1.94-.77-.94.02-2.45-1.62-2.11-2.31-5.25-4.71-8.62-2.89-1.13-1.9-3.01-3.9-3.45-6.57-.51-3.11-.02-.3.15-2.05.13-1.31.28-3.26-1.09-3.43 0-5.61.89-3.41-.13-6.93-.28-.97-1.44-13.24.91-15.74 1-1.06 1.46-.49 3.04-3.16 3.11-5.27 8.43-14.43 4.8-21.64-1.56-3.11-2.98-.4-.83-8.38 1.82-6.76.12-9.7.27-18.06.1-5.33-3.17-8.19-5.33-14.56-1.44-4.23-3.86-4.66-6.67-6.73-.89-.65-2.31-2.29-3.41-3.28-6.44-5.76-4-2.07-9.18-3.9-2.08-.74-8.51-.32-11.63.06-2.89.35-12.37 3.19-14.8 5.25-12.58 10.67-9.82 6.86-13.47 20.43-3.08 11.43-2.32 10.91-.61 24.79 1.04 8.42-5.45 6.97 1.09 22.83.6 1.44 1.63 3.13 2.42 4.4 1.14 1.85 1.71 2.65 4.4 2.72.09 4.75 2.78 9.2 3.32 11.04l2.01 13.07c.22 3.6.51 6.46.51 9.83-5.25 3.12-1.96 2.83-6.44 4.8l-12.7 6.52c-3.95 2.14-13.26 3.88-18.36 3.99-3.75.08-8.13 2.06-11.27 3.75-10.66 5.75-6.68 5.94-9.79 13.62-.82 2.03-1.56 3.77-2.21 5.72-.76 2.28-.92 4.13-1.58 6.43-2.45 8.53 1.1 7.44-2.88 11.54-.27.28-.76.86-.96 1.11.2 2.67 1.05 2.09.84 4.24-.19 1.86-.84 1.35-.84 5.07z"/>
</svg>
