<svg xmlns="http://www.w3.org/2000/svg" width="589.931" height="589.931" viewBox="0 0 276.24 276.24" shape-rendering="geometricPrecision" text-rendering="geometricPrecision" image-rendering="optimizeQuality" fill-rule="evenodd" clip-rule="evenodd">
  <circle cx="138.12" cy="138.12" r="138.12" fill="#ffa70a"/>
  <path d="M79.99 165.78c-.82 3.12-3.65 9.33-3.49 11.13l30.19 3.22.2 42.09 70.4.08 2.19-29.78 7.14.05 2.68 29.74 37.53-.01c.95-10.29.28-33.08-.72-43.58-1.29-13.61-5.59-24.21-12.93-32.22-4.08-4.46-19.98-14.8-30.14-14.22-2.59.15-10.82 6.82-13.4 8.68-4.48 3.24-8.89 6.64-13.63 9.55-2.88-1.69-12.1-13.5-15.93-17.65-3.01-3.26-1.74-3.71-7.61-3.57.06 7.44.05 14.91.03 22.34-.06 22.33-22.71 12.1-52.53 14.14zm-7.92-29.5l17.15.08-.09-4.5-20.54-.2c1.07 1.97 2.4 2.82 3.49 4.62zm-8.91-14.04l-.03 3.35c.84 1.55-.7.61 1.98 1.01l24.06-.2c.68-2.48.76-2.59-.1-4.97l-19.78-.18c-.82-.01-2.88-.14-3.52-.09-4.02.32-1.52-.2-2.62 1.08zm28.63 24.95l23.6-.08c1.08-12.21-25.58-11.62-23.6.08zm10.28-26.33c-10.6 2.79-6.51 16.85 3.2 14.84 9.67-1.99 6.37-17.36-3.2-14.84zm-44.55-4.97c1.13-1.36-2.07-.99 2.07-1.28 8.7.03 56.55-1.2 60.74.7l-.18 37.22c-3.82 1.29-33.35.41-40.01.5l.22 2.36.15 3.73c7.38.33 15.34.06 22.79.06 26.68 0 23.28 3.83 23.28-23.51 0-33.01 7.57-27.25-43.4-27.25-7.87 0-15.74 0-23.61-.02-8.01-.02-10.48 2.56-8.3 15.48l6.33 1.47-.08-9.45zm-15.7 16.92c-7.1 2.11-9.95 4.47-11.47 12.44-1.06 5.52-1.08 17.12-.62 23.07.59 7.6 2.72 13.15 8.37 15.28 5.88 2.22 15.92.38 20.89-2.01 26.52-12.79 10.29-56.93-17.18-48.77zm116.4-95.9c-22.23 2.87-40.92 22.08-37.92 47.96 2.57 22.18 22.84 41.16 48.93 37.75 21.76-2.84 40.01-22.87 36.92-48.3-2.64-21.71-22.85-40.66-47.93-37.41z" fill="#222b34"/>
</svg>
