<svg xmlns="http://www.w3.org/2000/svg" fill="none" viewBox="0 0 15 15" height="15" width="15">
<path stroke-linejoin="round" stroke-linecap="round" stroke-width="2" stroke="#FF9700" d="M13.1251 7.99375C13.0267 9.05763 12.6275 10.0715 11.974 10.9167C11.3205 11.762 10.4397 12.4036 9.43488 12.7666C8.43001 13.1296 7.34255 13.1988 6.29975 12.9663C5.25695 12.7338 4.30193 12.2091 3.54645 11.4536C2.79097 10.6981 2.26627 9.74311 2.03375 8.70031C1.80123 7.65751 1.87051 6.57005 2.23347 5.56519C2.59644 4.56032 3.23808 3.6796 4.08332 3.0261C4.92856 2.37259 5.94243 1.97332 7.00631 1.875C6.38344 2.71767 6.08372 3.75591 6.16164 4.80088C6.23957 5.84586 6.68997 6.82816 7.43094 7.56912C8.1719 8.31009 9.1542 8.76049 10.1992 8.83842C11.2442 8.91634 12.2824 8.61662 13.1251 7.99375V7.99375Z"></path>
</svg>


