<svg width="152" height="226" viewBox="0 0 152 226" fill="none" xmlns="http://www.w3.org/2000/svg">
<g filter="url(#filter0_d)">
<path d="M12 171.714C12 167.296 15.5817 163.714 20 163.714H79.9471C84.3654 163.714 87.9471 167.296 87.9471 171.714V190C87.9471 194.418 84.3654 198 79.9471 198H22.574H20C15.5817 198 12 194.418 12 190V171.714Z" fill="#474646"/>
<rect x="46.1328" width="93.8672" height="120.857" rx="10" fill="#F0E82A"/>
<rect x="46.6328" y="0.5" width="92.8672" height="119.857" rx="9.5" stroke="#FFCE31" stroke-opacity="0.4"/>
<path d="M17.1367 87.1487C16.4433 72.8554 36.4931 56.2366 46.6046 49.7139V81.6143V96.9328C46.6046 102.038 48.6265 101.896 49.6375 101.187L76.0719 76.5138C79.5388 76.0884 87.2524 77.1945 90.3726 85.0218C94.2727 94.8059 78.2387 110.12 73.4718 115.65C69.6583 120.074 72.4607 120.897 74.3385 120.755H98.1729L99.0396 122.031C93.8394 144.577 89.6503 154.787 83.0056 156.488V164.571H17.1367C17.4256 144.719 17.83 101.442 17.1367 87.1487Z" fill="#F7C9A9" stroke="#F2B78F" stroke-width="2" stroke-linecap="round"/>
<g filter="url(#filter1_i)">
<ellipse cx="71.3063" cy="182.143" rx="6.40004" ry="6.42856" fill="#2D2C2C"/>
</g>
<path d="M81.1188 96.5992L70.0254 87.5992C71.4476 85.7421 74.6334 81.9421 75.9988 81.5992C77.7054 81.1706 83.6788 81.1706 86.2388 86.3135C88.2868 90.4278 83.6788 94.8849 81.1188 96.5992Z" fill="#E3E2FE"/>
</g>
<defs>
<filter id="filter0_d" x="0" y="0" width="152" height="226" filterUnits="userSpaceOnUse" color-interpolation-filters="sRGB">
<feFlood flood-opacity="0" result="BackgroundImageFix"/>
<feColorMatrix in="SourceAlpha" type="matrix" values="0 0 0 0 0 0 0 0 0 0 0 0 0 0 0 0 0 0 127 0" result="hardAlpha"/>
<feOffset dy="16"/>
<feGaussianBlur stdDeviation="6"/>
<feComposite in2="hardAlpha" operator="out"/>
<feColorMatrix type="matrix" values="0 0 0 0 0 0 0 0 0 0 0 0 0 0 0 0 0 0 0.25 0"/>
<feBlend mode="normal" in2="BackgroundImageFix" result="effect1_dropShadow"/>
<feBlend mode="normal" in="SourceGraphic" in2="effect1_dropShadow" result="shape"/>
</filter>
<filter id="filter1_i" x="64.9062" y="175.715" width="12.8008" height="16.8574" filterUnits="userSpaceOnUse" color-interpolation-filters="sRGB">
<feFlood flood-opacity="0" result="BackgroundImageFix"/>
<feBlend mode="normal" in="SourceGraphic" in2="BackgroundImageFix" result="shape"/>
<feColorMatrix in="SourceAlpha" type="matrix" values="0 0 0 0 0 0 0 0 0 0 0 0 0 0 0 0 0 0 127 0" result="hardAlpha"/>
<feOffset dy="4"/>
<feGaussianBlur stdDeviation="2"/>
<feComposite in2="hardAlpha" operator="arithmetic" k2="-1" k3="1"/>
<feColorMatrix type="matrix" values="0 0 0 0 0 0 0 0 0 0 0 0 0 0 0 0 0 0 0.25 0"/>
<feBlend mode="normal" in2="shape" result="effect1_innerShadow"/>
</filter>
</defs>
</svg>
